<svg xmlns="http://www.w3.org/2000/svg" viewBox="0 0 650 500" width="650" height="500" preserveAspectRatio="xMidYMid meet" style="width: 100%; height: 100%; transform: translate3d(0px, 0px, 0px);"><defs><clipPath id="__lottie_element_744"><rect width="650" height="500" x="0" y="0"></rect></clipPath></defs><g clip-path="url(#__lottie_element_744)"><g transform="matrix(1,0,0,1,222.66700744628906,420.9949951171875)" opacity="1" style="display: block;"><g opacity="1" transform="matrix(2,0,0,2,0,0)"><path fill="rgb(134,137,155)" fill-opacity="1" d=" M29.815000534057617,36.474998474121094 C29.815000534057617,1.1139999628067017 -6.453000068664551,13.755000114440918 -1.8359999656677246,-33.96900177001953 C-1.8359999656677246,-33.96900177001953 -29.815000534057617,-36.474998474121094 -29.815000534057617,-36.474998474121094 C-29.815000534057617,-36.474998474121094 -26.81100082397461,-7.741000175476074 -26.81100082397461,-7.741000175476074 C-4.339000225067139,-7.741000175476074 -3.9489998817443848,20.548999786376953 -3.9489998817443848,20.548999786376953 C-3.9489998817443848,20.548999786376953 13.571999549865723,20.548999786376953 13.571999549865723,20.548999786376953 C13.571999549865723,20.548999786376953 0,36.474998474121094 0,36.474998474121094 C0,36.474998474121094 29.815000534057617,36.474998474121094 29.815000534057617,36.474998474121094z"></path></g></g><g transform="matrix(1,0,0,1,574.5969848632812,62.67499923706055)" opacity="1" style="display: block;"><g opacity="1" transform="matrix(2,0,0,2,0,0)"><path fill="rgb(134,137,155)" fill-opacity="1" d=" M-24.66900062561035,-5.834000110626221 C-25.003000259399414,-4.052000045776367 -25.170000076293945,-2.2699999809265137 -25.170000076293945,-0.4880000054836273 C-25.170000076293945,4.747000217437744 -23.77899932861328,9.647000312805176 -21.108999252319336,13.878999710083008 C-21.108999252319336,13.878999710083008 -32.79100036621094,13.878999710083008 -32.79100036621094,13.878999710083008 C-32.79100036621094,13.878999710083008 -32.79100036621094,27.85700035095215 -32.79100036621094,27.85700035095215 C-32.79100036621094,27.85700035095215 0.4169999957084656,27.85700035095215 0.4169999957084656,27.85700035095215 C4.478000164031982,27.85700035095215 7.760000228881836,24.570999145507812 7.760000228881836,20.506000518798828 C7.760000228881836,16.941999435424805 5.201000213623047,13.9350004196167 1.7519999742507935,13.267000198364258 C-1.8639999628067017,12.543000221252441 -4.867000102996826,11.149999618530273 -7.035999774932861,9.09000015258789 C-9.649999618530273,6.639999866485596 -11.097000122070312,3.243000030517578 -11.097000122070312,-0.4880000054836273 C-11.097000122070312,-7.949999809265137 -5.256999969482422,-15.579000473022461 5.868000030517578,-15.579000473022461 C5.868000030517578,-15.579000473022461 32.79100036621094,-15.579000473022461 32.79100036621094,-15.579000473022461 C32.79100036621094,-15.579000473022461 15.435999870300293,-24.6560001373291 15.435999870300293,-24.6560001373291 C-0.8619999885559082,-33.17599868774414 -21.219999313354492,-23.93199920654297 -24.66900062561035,-5.834000110626221z"></path></g></g><g transform="matrix(0.9771367907524109,0.21261155605316162,-0.21261155605316162,0.9771367907524109,484.77679443359375,376.476318359375)" opacity="1" style="display: block;"><g opacity="1" transform="matrix(2,0,0,2,0,0)"><path fill="rgb(134,137,155)" fill-opacity="1" d=" M29.902999877929688,-21.4950008392334 C8.654999732971191,-22.329999923706055 -9.869000434875488,-35.305999755859375 -9.869000434875488,-35.305999755859375 C-9.869000434875488,-35.305999755859375 -35.845001220703125,-16.038000106811523 -35.845001220703125,-16.038000106811523 C-29.503999710083008,1.3919999599456787 17.165000915527344,-11.972999572753906 17.165000915527344,-11.972999572753906 C17.165000915527344,-11.972999572753906 -0.3009999990463257,0.11100000143051147 -0.3009999990463257,0.11100000143051147 C-0.3009999990463257,0.11100000143051147 9.098999977111816,5.624000072479248 9.098999977111816,5.624000072479248 C9.098999977111816,5.624000072479248 -4.4730000495910645,11.694000244140625 -4.4730000495910645,11.694000244140625 C-4.4730000495910645,11.694000244140625 4.64900016784668,35.305999755859375 4.64900016784668,35.305999755859375 C20.05699920654297,30.85099983215332 19.000999450683594,11.694000244140625 19.000999450683594,11.694000244140625 C19.000999450683594,11.694000244140625 34.79800033569336,-11.916999816894531 34.79800033569336,-11.916999816894531 C37.46799850463867,-15.925999641418457 34.742000579833984,-21.327999114990234 29.902999877929688,-21.4950008392334z"></path></g></g><g transform="matrix(1,0,0,1,310.7179870605469,250.51499938964844)" opacity="1" style="display: block;"><g opacity="1" transform="matrix(2,0,0,2,0,0)"><path fill="rgb(229,229,229)" fill-opacity="1" d=" M133.35899353027344,-34.823001861572266 C133.35899353027344,-34.823001861572266 118.61900329589844,-12.21399974822998 118.61900329589844,-12.21399974822998 C118.61900329589844,-12.21399974822998 118.61900329589844,-12.324999809265137 118.61900329589844,-12.324999809265137 C118.61900329589844,-12.324999809265137 100.43000030517578,-12.324999809265137 100.43000030517578,-12.324999809265137 C100.43000030517578,-12.324999809265137 102.93299865722656,59.0099983215332 34.90399932861328,66.69499969482422 C43.69300079345703,87.74500274658203 69.11299896240234,99.3280029296875 69.11299896240234,120.21099853515625 C69.11299896240234,120.21099853515625 41.30099868774414,120.21099853515625 41.30099868774414,120.21099853515625 C41.30099868774414,120.21099853515625 51.869998931884766,103.89399719238281 51.869998931884766,103.89399719238281 C51.869998931884766,103.89399719238281 35.96099853515625,103.89399719238281 35.96099853515625,103.89399719238281 C35.96099853515625,103.89399719238281 28.89699935913086,81.78600311279297 28.89699935913086,81.78600311279297 C28.89699935913086,81.78600311279297 1.975000023841858,84.125 -0.4169999957084656,62.797000885009766 C-5.979000091552734,60.45800018310547 -11.041000366210938,57.34000015258789 -15.54699993133545,53.60900115966797 C-22.888999938964844,47.53900146484375 -33.069000244140625,46.5359992980957 -41.801998138427734,50.433998107910156 C-47.08599853515625,52.82899856567383 -52.981998443603516,54.165000915527344 -59.15599822998047,54.165000915527344 C-68.05599975585938,54.165000915527344 -90.19499969482422,58.731998443603516 -90.19499969482422,88.302001953125 C-90.19499969482422,98.99400329589844 -77.6240005493164,104.1719970703125 -77.6240005493164,121.65799713134766 C-77.6240005493164,121.65799713134766 -112.77799987792969,121.65799713134766 -112.77799987792969,121.65799713134766 C-112.77799987792969,121.65799713134766 -98.37200164794922,103.33699798583984 -98.37200164794922,103.33699798583984 C-98.37200164794922,103.33699798583984 -110.5530014038086,103.33699798583984 -110.5530014038086,103.33699798583984 C-110.5530014038086,103.33699798583984 -94.6449966430664,85.23899841308594 -108.8290023803711,64.24500274658203 C-108.8290023803711,64.24500274658203 -90.52899932861328,60.73699951171875 -89.75,41.1349983215332 C-97.48200225830078,33.11600112915039 -102.04299926757812,22.09000015258789 -101.5979995727539,9.949999809265137 C-101.48699951171875,7.945000171661377 -101.20899963378906,5.995999813079834 -100.875,4.046999931335449 C-100.4219970703125,1.1180000305175781 -100.73400115966797,1.7419999837875366 -99.48400115966797,-1.5219999551773071 C-94.14399719238281,-17.83799934387207 -79.125,-29.97800064086914 -61.27000045776367,-30.868999481201172 C-49.867000579833984,-31.426000595092773 -39.40999984741211,-27.472000122070312 -31.45599937438965,-20.67799949645996 C-24.892000198364258,-15.053999900817871 -16.493000030517578,-12.157999992370605 -7.870999813079834,-12.157999992370605 C-7.870999813079834,-12.157999992370605 -0.8619999885559082,-12.157999992370605 -0.8619999885559082,-12.157999992370605 C0.13899999856948853,-12.157999992370605 1.1399999856948853,-12.157999992370605 2.0859999656677246,-12.21399974822998 C19.996999740600586,-13.215999603271484 30.065000534057617,-23.128000259399414 35.29399871826172,-31.035999298095703 C38.35300064086914,-35.60200119018555 43.637001037597656,-38.2760009765625 49.0880012512207,-37.66299819946289 C53.0369987487793,-37.21799850463867 56.375,-38.275001525878906 58.87799835205078,-39.722999572753906 C60.380001068115234,-40.55799865722656 59.65700149536133,-42.89799880981445 57.93299865722656,-42.67499923706055 C43.91600036621094,-40.893001556396484 38.6870002746582,-60.494998931884766 38.6870002746582,-60.494998931884766 C38.6870002746582,-60.494998931884766 69.78099822998047,-60.494998931884766 69.78099822998047,-60.494998931884766 C69.78099822998047,-60.494998931884766 69.78099822998047,-66.00800323486328 69.78099822998047,-66.00800323486328 C69.78099822998047,-66.00800323486328 53.426998138427734,-66.00800323486328 53.426998138427734,-66.00800323486328 C40.744998931884766,-66.00800323486328 33.18000030517578,-70.68599700927734 29.007999420166016,-74.58399963378906 C23.500999450683594,-79.70700073242188 20.49799919128418,-86.77899932861328 20.49799919128418,-94.40799713134766 C20.49799919128418,-95.29900360107422 20.49799919128418,-96.19000244140625 20.608999252319336,-97.08100128173828 C22.44499969482422,-116.45999908447266 43.85900115966797,-127.48600006103516 61.10300064086914,-118.46499633789062 C61.10300064086914,-118.46499633789062 78.23600006103516,-109.5 78.23600006103516,-109.5 C78.23600006103516,-109.5 51.5359992980957,-109.5 51.5359992980957,-109.5 C43.137001037597656,-109.5 34.56999969482422,-104.31999969482422 34.56999969482422,-94.40799713134766 C34.56999969482422,-90.73300170898438 36.016998291015625,-87.27999877929688 38.63100051879883,-84.83000183105469 C41.91299819946289,-81.76699829101562 47.029998779296875,-80.09700012207031 53.426998138427734,-80.09700012207031 C53.426998138427734,-80.09700012207031 69.947998046875,-80.09700012207031 69.947998046875,-80.09700012207031 C70.72699737548828,-84.10600280761719 74.28700256347656,-87.11299896240234 78.51399993896484,-87.11299896240234 C78.51399993896484,-87.11299896240234 94.08799743652344,-87.11299896240234 94.08799743652344,-87.11299896240234 C99.59500122070312,-87.11299896240234 104.04499816894531,-82.65799713134766 104.04499816894531,-77.1449966430664 C104.04499816894531,-77.1449966430664 104.04499816894531,-61.16299819946289 104.04499816894531,-61.16299819946289 C117.6729965209961,-61.16299819946289 112.61100006103516,-47.24100112915039 112.61100006103516,-47.24100112915039 C116.1709976196289,-33.65299987792969 133.35899353027344,-34.823001861572266 133.35899353027344,-34.823001861572266z"></path></g></g><g transform="matrix(0.991871178150177,-0.1272462159395218,0.1272462159395218,0.991871178150177,99.16536712646484,178.9071044921875)" opacity="1" style="display: block;"><g opacity="1" transform="matrix(2,0,0,2,0,0)"><path fill="rgb(229,229,229)" fill-opacity="1" d=" M-25.809999465942383,5.797999858856201 C-25.698999404907227,21.558000564575195 -13.126999855041504,34.36600112915039 2.503000020980835,34.81100082397461 C2.614000082015991,32.805999755859375 0.777999997138977,42.32899856567383 1.1119999885559082,40.380001068115234 C-16.854999542236328,39.154998779296875 -31.14900016784668,24.28700065612793 -31.371999740600586,6.077000141143799 C-31.371999740600586,6.020999908447266 -31.371999740600586,6.020999908447266 -31.371999740600586,5.965000152587891 C-31.371999740600586,5.908999919891357 -31.371999740600586,5.854000091552734 -31.371999740600586,5.797999858856201 C-31.371999740600586,5.742000102996826 -31.371999740600586,5.686999797821045 -31.371999740600586,5.63100004196167 C-31.371999740600586,5.574999809265137 -31.371999740600586,5.576000213623047 -31.371999740600586,5.519999980926514 C-31.14900016784668,-11.743000030517578 -18.356000900268555,-25.94300079345703 -1.7799999713897705,-28.448999404907227 C-1.7799999713897705,-28.448999404907227 13.350000381469727,-40.64500045776367 13.350000381469727,-40.64500045776367 C13.350000381469727,-40.64500045776367 31.371999740600586,-26.05500030517578 31.371999740600586,-26.05500030517578 C31.371999740600586,-26.05500030517578 13.350000381469727,-11.520000457763672 13.350000381469727,-11.520000457763672 C13.350000381469727,-11.520000457763672 -0.7229999899864197,-22.881000518798828 -0.7229999899864197,-22.881000518798828 C-14.795999526977539,-20.875999450683594 -25.698999404907227,-8.847999572753906 -25.809999465942383,5.797999858856201z"></path></g></g><g transform="matrix(1,0,0,1,484.4339904785156,156.7030029296875)" opacity="1" style="display: block;"><g opacity="1" transform="matrix(2,0,0,2,0,0)"><path fill="rgb(20,19,41)" fill-opacity="1" d=" M0,5.4019999504089355 C2.9800000190734863,5.4019999504089355 5.395999908447266,2.9830000400543213 5.395999908447266,0 C5.395999908447266,-2.9830000400543213 2.9800000190734863,-5.4019999504089355 0,-5.4019999504089355 C-2.9800000190734863,-5.4019999504089355 -5.395999908447266,-2.9830000400543213 -5.395999908447266,0 C-5.395999908447266,2.9830000400543213 -2.9800000190734863,5.4019999504089355 0,5.4019999504089355z"></path></g></g></g></svg>