<svg xmlns="http://www.w3.org/2000/svg" viewBox="0 0 700 510" width="700" height="510" preserveAspectRatio="xMidYMid meet" style="width: 100%; height: 100%; transform: translate3d(0px, 0px, 0px);"><defs><clipPath id="__lottie_element_1537"><rect width="700" height="510" x="0" y="0"></rect></clipPath><mask id="__lottie_element_1556" mask-type="alpha"><g transform="matrix(1,0,0,1,302.7760009765625,345.177001953125)" opacity="1" style="display: block;"><g opacity="1" transform="matrix(2,0,0,2,0,0)"><path fill="rgb(242,242,242)" fill-opacity="1" d=" M0.0010000000474974513,-57.58599853515625 C-125.60800170898438,-57.58599853515625 -140.156005859375,-69.96099853515625 -140.156005859375,-69.96099853515625 C-140.156005859375,7.394000053405762 -77.35399627685547,70.19599914550781 0.0010000000474974513,70.19599914550781 C77.35600280761719,70.19599914550781 140.156005859375,7.394000053405762 140.156005859375,-69.96099853515625 C140.156005859375,-69.96099853515625 140.156005859375,-70.19599914550781 140.156005859375,-70.19599914550781 C140.03199768066406,-63.23400115966797 77.2770004272461,-57.58599853515625 0.0010000000474974513,-57.58599853515625z"></path></g></g></mask></defs><g clip-path="url(#__lottie_element_1537)"><g transform="matrix(1,0,0,1,302.760986328125,471.4129943847656)" opacity="1" style="display: block;"><g opacity="1" transform="matrix(2,0,0,2,0,0)"><path fill="rgb(242,242,242)" fill-opacity="1" d=" M64.31700134277344,7.4070000648498535 C64.31700134277344,-35.37099838256836 35.49800109863281,1.5679999589920044 0,1.5679999589920044 C-35.49800109863281,1.5679999589920044 -64.31700134277344,-33.90999984741211 -64.31700134277344,7.4070000648498535 C-64.31700134277344,10.630999565124512 -35.49800109863281,13.246000289916992 0,13.246000289916992 C35.49800109863281,13.246000289916992 64.31700134277344,10.630999565124512 64.31700134277344,7.4070000648498535z"></path></g></g><g transform="matrix(1,0,0,1,302.77801513671875,204.76800537109375)" opacity="1" style="display: block;"><g opacity="1" transform="matrix(2,0,0,2,0,0)"><path fill="rgb(134,137,155)" fill-opacity="1" d=" M0,12.630000114440918 C77.40699768066406,12.630000114440918 140.15699768066406,6.974999904632568 140.15699768066406,0 C140.15699768066406,-6.974999904632568 77.40699768066406,-12.630000114440918 0,-12.630000114440918 C-77.40699768066406,-12.630000114440918 -140.15699768066406,-6.974999904632568 -140.15699768066406,0 C-140.15699768066406,6.974999904632568 -77.40699768066406,12.630000114440918 0,12.630000114440918z"></path></g></g><g transform="matrix(1,0,0,1,473.7877197265625,88.45843505859375)" opacity="1" style="display: block;"><g opacity="1" transform="matrix(1.1119239330291748,1.6624153852462769,-1.6624153852462769,1.1119239330291748,0,0)"><path fill="rgb(242,242,242)" fill-opacity="1" d=" M7.63100004196167,0.0010000000474974513 C7.63100004196167,-42.880001068115234 7.51800012588501,-77.69400024414062 -0.0010000000474974513,-77.69400024414062 C-7.519999980926514,-77.69400024414062 -7.63100004196167,-42.880001068115234 -7.63100004196167,0.0010000000474974513 C-7.63100004196167,42.880001068115234 -4.211999893188477,77.69400024414062 -0.0010000000474974513,77.69400024414062 C4.210999965667725,77.69400024414062 7.63100004196167,42.880001068115234 7.63100004196167,0.0010000000474974513z"></path></g></g><g transform="matrix(1,0,0,1,321.9647216796875,192.58843994140625)" opacity="1" style="display: block;"><g opacity="1" transform="matrix(1.125523328781128,1.6532384157180786,-1.6532384157180786,1.125523328781128,0,0)"><path fill="rgb(242,242,242)" fill-opacity="1" d=" M16.378000259399414,9.151000022888184 C16.378000259399414,-3.515000104904175 9.038999557495117,-32.10100173950195 0,-32.10100173950195 C-9.039999961853027,-32.10100173950195 -16.378000259399414,-3.515000104904175 -16.378000259399414,9.151000022888184 C-16.378000259399414,21.816999435424805 -9.039999961853027,32.10100173950195 0,32.10100173950195 C9.038999557495117,32.10100173950195 16.378000259399414,21.816999435424805 16.378000259399414,9.151000022888184z"></path></g></g><g transform="matrix(1,0,0,1,302.7760009765625,345.177001953125)" opacity="1" style="display: block;"><g opacity="1" transform="matrix(2,0,0,2,0,0)"><path fill="rgb(242,242,242)" fill-opacity="1" d=" M0.0010000000474974513,-57.58599853515625 C-125.60800170898438,-57.58599853515625 -140.156005859375,-69.96099853515625 -140.156005859375,-69.96099853515625 C-140.156005859375,7.394000053405762 -77.35399627685547,70.19599914550781 0.0010000000474974513,70.19599914550781 C77.35600280761719,70.19599914550781 140.156005859375,7.394000053405762 140.156005859375,-69.96099853515625 C140.156005859375,-69.96099853515625 140.156005859375,-70.19599914550781 140.156005859375,-70.19599914550781 C140.03199768066406,-63.23400115966797 77.2770004272461,-57.58599853515625 0.0010000000474974513,-57.58599853515625z"></path></g></g><g mask="url(#__lottie_element_1556)" style="display: block;"><g transform="matrix(1,0,0,1,264,275)" opacity="1"><g opacity="1" transform="matrix(1,0,0,1,0,0)"><path fill="rgb(134,137,155)" fill-opacity="1" d=" M-280.25,-38 C-280.25,-38 -284,41 -284,41 C-284,41 -205,205 -205,205 C-205,205 -101,187.5 -98.5,195 C-96,202.5 -89.24400329589844,177.14100646972656 -69,172 C49.125,142 -88.5,143 -105.5,133.5 C-122.5,124 -87.5,82.5 -108,70.5 C-128.5,58.5 -58.25,21.25 -72.5,13.5 C-87.87999725341797,5.136000156402588 -103,11.25 -160.5,0.75 C-218,-9.75 -280.25,-38 -280.25,-38z"></path><path stroke-linecap="butt" stroke-linejoin="miter" fill-opacity="0" stroke-miterlimit="4" stroke="rgb(47,47,47)" stroke-opacity="1" stroke-width="0" d=" M-280.25,-38 C-280.25,-38 -284,41 -284,41 C-284,41 -205,205 -205,205 C-205,205 -101,187.5 -98.5,195 C-96,202.5 -89.24400329589844,177.14100646972656 -69,172 C49.125,142 -88.5,143 -105.5,133.5 C-122.5,124 -87.5,82.5 -108,70.5 C-128.5,58.5 -58.25,21.25 -72.5,13.5 C-87.87999725341797,5.136000156402588 -103,11.25 -160.5,0.75 C-218,-9.75 -280.25,-38 -280.25,-38z"></path></g></g></g></g></svg>