<svg xmlns="http://www.w3.org/2000/svg" viewBox="0 0 350 520" width="350" height="520" preserveAspectRatio="xMidYMid meet" style="width: 100%; height: 100%; transform: translate3d(0px, 0px, 0px);"><defs><clipPath id="__lottie_element_844"><rect width="350" height="520" x="0" y="0"></rect></clipPath></defs><g clip-path="url(#__lottie_element_844)"><g transform="matrix(1,0,0,1,125,253)" opacity="1" style="display: block;"><g opacity="1" transform="matrix(2,0,0,2,0,0)"></g></g><g transform="matrix(1,0,0,1,102.56900024414062,38.25899887084961)" opacity="1" style="display: block;"><g opacity="1" transform="matrix(2,0,0,2,0,0)"><path fill="rgb(134,137,155)" fill-opacity="1" d=" M4.116000175476074,-12.666999816894531 C4.116000175476074,-12.666999816894531 0.0010000000474974513,-18.496999740600586 0.0010000000474974513,-18.496999740600586 C0.0010000000474974513,-18.496999740600586 -4.116000175476074,-12.666999816894531 -4.116000175476074,-12.666999816894531 C-4.116000175476074,-12.666999816894531 -10.871000289916992,-14.96399974822998 -10.871000289916992,-14.96399974822998 C-10.871000289916992,-14.96399974822998 -10.776000022888184,-7.828999996185303 -10.776000022888184,-7.828999996185303 C-10.776000022888184,-7.828999996185303 -17.590999603271484,-5.716000080108643 -17.590999603271484,-5.716000080108643 C-17.590999603271484,-5.716000080108643 -13.319000244140625,0 -13.319000244140625,0 C-13.319000244140625,0 -17.590999603271484,5.716000080108643 -17.590999603271484,5.716000080108643 C-17.590999603271484,5.716000080108643 -10.776000022888184,7.828999996185303 -10.776000022888184,7.828999996185303 C-10.776000022888184,7.828999996185303 -10.871000289916992,14.96399974822998 -10.871000289916992,14.96399974822998 C-10.871000289916992,14.96399974822998 -4.116000175476074,12.666999816894531 -4.116000175476074,12.666999816894531 C-4.116000175476074,12.666999816894531 0.0010000000474974513,18.496999740600586 0.0010000000474974513,18.496999740600586 C0.0010000000474974513,18.496999740600586 4.116000175476074,12.666999816894531 4.116000175476074,12.666999816894531 C4.116000175476074,12.666999816894531 10.873000144958496,14.96399974822998 10.873000144958496,14.96399974822998 C10.873000144958496,14.96399974822998 10.776000022888184,7.828999996185303 10.776000022888184,7.828999996185303 C10.776000022888184,7.828999996185303 17.590999603271484,5.716000080108643 17.590999603271484,5.716000080108643 C17.590999603271484,5.716000080108643 13.319000244140625,0 13.319000244140625,0 C13.319000244140625,0 17.590999603271484,-5.716000080108643 17.590999603271484,-5.716000080108643 C17.590999603271484,-5.716000080108643 10.776000022888184,-7.828999996185303 10.776000022888184,-7.828999996185303 C10.776000022888184,-7.828999996185303 10.873000144958496,-14.96399974822998 10.873000144958496,-14.96399974822998 C10.873000144958496,-14.96399974822998 4.116000175476074,-12.666999816894531 4.116000175476074,-12.666999816894531z"></path></g></g><g transform="matrix(1,0,0,1,83.05999755859375,104.16999816894531)" opacity="1" style="display: block;"><g opacity="1" transform="matrix(2,0,0,2,0,0)"><path fill="rgb(134,137,155)" fill-opacity="1" d=" M0,8.479999542236328 C3.9579999446868896,8.479999542236328 7.166999816894531,4.683000087738037 7.166999816894531,0 C7.166999816894531,-4.683000087738037 3.9579999446868896,-8.479999542236328 0,-8.479999542236328 C-3.9579999446868896,-8.479999542236328 -7.166999816894531,-4.683000087738037 -7.166999816894531,0 C-7.166999816894531,4.683000087738037 -3.9579999446868896,8.479999542236328 0,8.479999542236328z"></path></g></g><g transform="matrix(0.9997891783714294,-0.020533617585897446,0.020533617585897446,0.9997891783714294,48.97894287109375,82.74227905273438)" opacity="1" style="display: block;"><g opacity="1" transform="matrix(2,0,0,2,0,0)"><path fill="rgb(134,137,155)" fill-opacity="1" d=" M-9.545999526977539,-5.664999961853027 C-9.545999526977539,-5.664999961853027 13.222000122070312,-5.234000205993652 13.222000122070312,-5.234000205993652 C13.222000122070312,-5.234000205993652 9.545999526977539,5.664999961853027 9.545999526977539,5.664999961853027 C-2.5160000324249268,0.7139999866485596 -8.85200023651123,-2.0299999713897705 -9.545999526977539,-5.664999961853027z"></path></g></g><g transform="matrix(1,0,0,1,45.51900100708008,54.007999420166016)" opacity="1" style="display: block;"><g opacity="1" transform="matrix(2,0,0,2,0,0)"><path fill="rgb(134,137,155)" fill-opacity="1" d=" M11.173999786376953,-8.503000259399414 C11.173999786376953,-8.503000259399414 11.173999786376953,8.503000259399414 11.173999786376953,8.503000259399414 C11.173999786376953,8.503000259399414 -11.098999977111816,8.503000259399414 -11.098999977111816,8.503000259399414 C-11.152999877929688,8.305999755859375 -11.177000045776367,8.104999542236328 -11.17300033569336,7.900000095367432 C-11.13599967956543,4.5229997634887695 -3.6480000019073486,0.10499999672174454 11.173999786376953,-8.503000259399414z"></path></g></g><g transform="matrix(1,0,0,1,181.04600524902344,217.39199829101562)" opacity="1" style="display: block;"><g opacity="1" transform="matrix(2,0,0,2,0,0)"><path fill="rgb(242,242,242)" fill-opacity="1" d=" M-56.4119987487793,-61.856998443603516 C-56.4119987487793,-61.856998443603516 -56.4119987487793,-90.19300079345703 -56.4119987487793,-90.19300079345703 C-43.93299865722656,-96.88600158691406 -29.079999923706055,-99.13200378417969 -21.02199935913086,-87.69200134277344 C-12.654000282287598,-75.81199645996094 -3.6589999198913574,-47.68000030517578 -6.763999938964844,-28.573999404907227 C-6.763999938964844,-28.573999404907227 -6.763999938964844,17.933000564575195 -6.763999938964844,17.933000564575195 C-6.763999938964844,17.933000564575195 -6.699999809265137,-21.531999588012695 -6.699999809265137,-21.531999588012695 C18.054000854492188,-3.5989999771118164 3.453000068664551,21.658000946044922 31.083999633789062,13.038000106811523 C71.24199676513672,0.5090000033378601 81.72000122070312,9.163999557495117 79.27400207519531,24.650999069213867 C69.72200012207031,85.15399932861328 11.07699966430664,106.02899932861328 -27.04800033569336,91.11599731445312 C-49.42399978637695,82.36299896240234 -65.25299835205078,71.73600006103516 -76.78600311279297,39 C-84.03500366210938,18.424999237060547 -77.15799713134766,-9.498000144958496 -57.986000061035156,-26.885000228881836 C-53.08399963378906,-31.329999923706055 -49.03499984741211,-37.15299987792969 -46.82699966430664,-42.77199935913086 C-43.064998626708984,-52.3380012512207 -44.637001037597656,-61.30799865722656 -56.4119987487793,-61.856998443603516z"></path></g></g><g transform="matrix(1,0,0,1,102.29399871826172,55.05400085449219)" opacity="1" style="display: block;"><g opacity="1" transform="matrix(2,0,0,2,0,0)"><path fill="rgb(20,19,41)" fill-opacity="1" d=" M4.723999977111816,0 C4.723999977111816,2.611999988555908 2.6089999675750732,4.729000091552734 0,4.729000091552734 C-2.6089999675750732,4.729000091552734 -4.723999977111816,2.611999988555908 -4.723999977111816,0 C-4.723999977111816,-2.6110000610351562 -2.6089999675750732,-4.729000091552734 0,-4.729000091552734 C2.6089999675750732,-4.729000091552734 4.723999977111816,-2.6110000610351562 4.723999977111816,0z"></path></g></g><g transform="matrix(0.9985325932502747,-0.05415454879403114,0.05415454879403114,0.9985325932502747,200.1646270751953,302.35040283203125)" opacity="1" style="display: block;"><g opacity="1" transform="matrix(2,0,0,2,0,0)"><path fill="rgb(134,137,155)" fill-opacity="1" d=" M16.48200035095215,-36.38199996948242 C16.48200035095215,-36.38199996948242 -13.248000144958496,-66.13899993896484 -13.248000144958496,-66.13899993896484 C-38.290000915527344,-41.07400131225586 -38.29100036621094,-0.44200000166893005 -13.303999900817871,24.51300048828125 C-13.303999900817871,24.51300048828125 32.0369987487793,66.13899993896484 32.0369987487793,66.13899993896484 C32.0369987487793,66.13899993896484 32.0369987487793,1.215000033378601 32.0369987487793,1.215000033378601 C32.0369987487793,-12.86299991607666 26.465999603271484,-26.388999938964844 16.48200035095215,-36.38199996948242z"></path></g></g><g transform="matrix(1,0,0,1,114.42900085449219,412.19500732421875)" opacity="1" style="display: block;"><g opacity="1" transform="matrix(2,0,0,2,0,0)"><path stroke-linecap="round" stroke-linejoin="round" fill-opacity="0" stroke="rgb(242,242,242)" stroke-opacity="1" stroke-width="7" d=" M7.441999912261963,-18.184999465942383 C7.441999912261963,-18.184999465942383 7.379000186920166,5.853000164031982 7.379000186920166,5.853000164031982 C7.379000186920166,12.677000045776367 1.875,18.184999465942383 -4.940999984741211,18.184999465942383 C-4.940999984741211,18.184999465942383 -7.441999912261963,18.184999465942383 -7.441999912261963,18.184999465942383"></path></g></g><g transform="matrix(1,0,0,1,114.36599731445312,463.2749938964844)" opacity="1" style="display: block;"><g opacity="1" transform="matrix(2,0,0,2,0,0)"><path stroke-linecap="round" stroke-linejoin="round" fill-opacity="0" stroke="rgb(242,242,242)" stroke-opacity="1" stroke-width="7" d=" M-7.410999774932861,-7.418000221252441 C-4.438000202178955,-7.418000221252441 -1.6710000038146973,-6.544000148773193 0.6480000019073486,-5.039000034332275 C4.71999979019165,-2.3959999084472656 7.410999774932861,2.193000078201294 7.410999774932861,7.418000221252441"></path></g></g><g transform="matrix(1,0,0,1,84.88999938964844,463.4010009765625)" opacity="1" style="display: block;"><g opacity="1" transform="matrix(2,0,0,2,0,0)"><path stroke-linecap="round" stroke-linejoin="round" fill-opacity="0" stroke="rgb(242,242,242)" stroke-opacity="1" stroke-width="7" d=" M-7.410999774932861,7.418000221252441 C-7.410999774932861,-0.7820000052452087 -0.7820000052452087,-7.418000221252441 7.410999774932861,-7.418000221252441"></path></g></g><g transform="matrix(1,0,0,1,165.33999633789062,438.6940002441406)" opacity="1" style="display: block;"><g opacity="1" transform="matrix(2,0,0,2,0,0)"><path stroke-linecap="round" stroke-linejoin="round" fill-opacity="0" stroke="rgb(242,242,242)" stroke-opacity="1" stroke-width="7" d=" M7.441999912261963,-18.184999465942383 C7.441999912261963,-18.184999465942383 7.379000186920166,5.853000164031982 7.379000186920166,5.853000164031982 C7.379000186920166,12.677000045776367 1.875,18.184999465942383 -4.940999984741211,18.184999465942383 C-4.940999984741211,18.184999465942383 -7.441999912261963,18.184999465942383 -7.441999912261963,18.184999465942383"></path></g></g><g transform="matrix(1,0,0,1,165.2779998779297,489.77398681640625)" opacity="1" style="display: block;"><g opacity="1" transform="matrix(2,0,0,2,0,0)"><path stroke-linecap="round" stroke-linejoin="round" fill-opacity="0" stroke="rgb(242,242,242)" stroke-opacity="1" stroke-width="7" d=" M-7.410999774932861,-7.418000221252441 C-4.438000202178955,-7.418000221252441 -1.6710000038146973,-6.544000148773193 0.6480000019073486,-5.039000034332275 C4.71999979019165,-2.3959999084472656 7.410999774932861,2.193000078201294 7.410999774932861,7.418000221252441"></path></g></g><g transform="matrix(1,0,0,1,135.80099487304688,489.89898681640625)" opacity="1" style="display: block;"><g opacity="1" transform="matrix(2,0,0,2,0,0)"><path stroke-linecap="round" stroke-linejoin="round" fill-opacity="0" stroke="rgb(242,242,242)" stroke-opacity="1" stroke-width="7" d=" M-7.410999774932861,7.418000221252441 C-7.410999774932861,-0.7820000052452087 -0.7820000052452087,-7.418000221252441 7.410999774932861,-7.418000221252441"></path></g></g></g></svg>