<svg width="541" height="616" fill="none" xmlns="http://www.w3.org/2000/svg"><path d="M150.166 122.569c78.602-49.455 77.408 75.018 113.722 118.022 36.314 43.004 57.578 41.809 64.984 76.451 7.406 34.642 33.208 59.489 23.174 115.872-10.034 56.383 39.659 106.077 49.932 141.674 10.274 35.598-24.368 35.359-64.028-15.768-39.42-51.366-70.717-27.236-106.315-113.96-35.598-86.725-95.325-75.735-129.012-138.091-33.686-62.356-84.097-153.381 47.543-184.2z" fill="#C4C4C4"/><path d="M102.623 306.77c-33.448-62.594-84.097-153.381 47.543-184.2 8.601-5.256 15.768-8.601 22.696-10.273-9.317 3.106-22.218 15.051-37.509 22.696-17.679 8.601-42.526 44.916-24.607 64.745 17.918 19.83 17.44 54.233 39.42 80.513 21.741 26.519 59.011 17.919 69.762 53.038 10.751 35.12 39.42 54.233 55.905 70.24 16.485 16.007 9.795 75.735 37.748 86.008 27.953 10.273 39.659 51.605 54.711 76.691 15.051 25.085 38.464 28.43 33.447 8.123 10.273 35.597-24.369 35.358-64.028-15.769-39.42-51.365-70.718-27.235-106.315-113.96-35.598-87.203-95.087-75.496-128.773-137.852z" fill="#86899B"/><path d="M93.55 130.458l3.822 18.157 53.994-25.325 13.379-7.645-12.424-13.379s-8.839 30.82-25.802 8.123C77.303 38.238 36.689 32.982 19.487 34.415c-4.54.717-7.406 5.495-5.495 9.796l.239.239c1.194 3.105 4.061 4.539 7.167 4.3 4.778-.478 13.14-.239 23.891 4.3 20.546 8.123 39.42 26.042 54.95 45.394 14.095 18.873 34.881 42.526-6.69 32.014z" fill="#86899B"/></svg>