<svg width="228" height="227" fill="none" xmlns="http://www.w3.org/2000/svg"><path d="M115 217c-30.34 0-53.067-9.085-74.5-36C19.121 154.147 0 122.669 0 84.71c0-37.956 14.571-71.626 14.571-71.626l17 7.133L55 0l15.774 24.186L88 10l24.5 18L132 5.5l25 17 22-17 12.5 17 21.168-8.738s14.918 33.62 14.918 71.576c0 37.955-22.702 66.309-44.086 93.162-21.433 26.92-38.159 38.5-68.5 38.5z" fill="#86899B"/><path d="M114.138 226.21c-30.34 0-58.855-14.823-80.288-41.738C12.471 157.619 0 121.297 0 83.338 0 45.382 14.571 12.39 14.571 12.39l33.652 30.53 27.507-9.034 16.207 27.768 25.672-14.064 23.939 14.064L154.96 32.42l23.015 12.236 34.693-32.265s14.918 33.621 14.918 71.576c0 37.955-11.777 73.649-33.16 100.502-21.433 26.919-49.947 41.742-80.288 41.742z" fill="#F2F2F2"/><path d="M140.82 76.104l-2.856 4.125.526-2.63.067-.337-.289-.184-5.157-3.282 7.336-19.564 11.848-17.377-15.752 35.442-.159.358.309.24 4.127 3.21z" fill="#86899B" stroke="#86899B"/></svg>