<svg width="253" height="469" fill="none" xmlns="http://www.w3.org/2000/svg"><path d="M116.691 173.509c-10.937 49.718-48.306 30.091-42.758-33.345 1.897-21.56-.697-33.588-6.144-40.069-2.057-2.446-5.347-.294-5.23 3.32.294 9.145-1.1 24.67-11.541 38.581-16.032 21.367-11.517 52.476 9.401 83.542 14.9 21.359 38.612 46.491 21.942 71.27-14.589 21.687-54.796-14.205-60.378-77.389-.453-5.144-5.724-6.489-7.537-1.883-10.14 25.83-24.183 78.919 11.995 115.635 19.289 19.576 31.846 37.471 24.77 50.861-9.334 17.685-31.1-4.127-44.723-20.602-2.618-3.16-6.765.076-5.842 4.564 6.405 30.983 31.788 100.286 130.709 100.085 84.77-.177 112.789-56.99 119.747-97.033.747-4.296-3.139-7.338-5.699-4.455-10.341 11.633-29.144 27.578-40.45 5.858-19.508-37.48 76.166-57.182 39.191-165.386-1.377-4.034-5.977-3.185-6.447 1.185-2.694 24.948-11.441 72.783-39.107 80.147-16.754 4.454-28.698-20.577-18.324-38.237 15.361-26.166 46.763-54.888 29.79-94.267-8.813-20.459-9.006-35.858-6.841-46.331.747-3.598-2.761-6.002-4.608-3.161-7.37 11.364-15.26 30.436-14.454 59.435 1.477 53.333-51.774 33.757-30.529-29.974 20.297-60.855 12.272-110.717-23.217-134.647-4.323-2.917-9.217 2.614-7.605 8.582 4.617 17.13 8.889 46.062-2.845 75.036-15.512 38.345 4.667 52.593-3.266 88.678z" fill="#FFEFE3"/><path d="M133.563 447.838c-59.462.126-65.522-64.941-57.464-85.996 0 0 8.234 36.051 27.246 22.484 19.021-13.566-21.455-45.036-.168-82.651 0-.033 1.755 29.092 21.396 16.752 19.633-12.33-9.25-55.854 8.587-69.412 0 0-.613 11.994 9.821 23.258 10.425 11.263 22.076 50.769 8.251 76.12-13.825 25.342 3.601 64.386 33.584 26.755-.009-.009-6.363 72.598-51.253 72.69z" fill="#86899B"/></svg>