<svg width="126" height="126" fill="none" xmlns="http://www.w3.org/2000/svg"><circle cx="63" cy="64" r="61" fill="#141329"/><path d="M60.536 104c34.106-.071 37.452-26.918 32.795-35.584 0 0-4.65 14.886-15.589 9.325-10.94-5.553 12.212-18.62-.07-34.086 0-.016-.943 12-12.236 6.957C54.151 45.569 70.627 27.56 60.371 22c0 0 .377 4.941-5.584 9.608-5.96 4.667-12.557 20.988-4.578 31.412C58.188 73.443 48.277 89.584 31 74.118c-.008.007 3.785 29.937 29.536 29.882z" fill="#FFEFE3"/><path d="M62.794 125.763C28.17 125.763 0 97.553 0 62.881S28.17 0 62.794 0C97.42 0 125.59 28.209 125.59 62.881c0 34.673-28.17 62.882-62.795 62.882zm0-122.4c-32.77 0-59.436 26.695-59.436 59.518 0 32.815 26.658 59.52 59.436 59.52s59.437-26.696 59.437-59.52c0-32.815-26.667-59.519-59.437-59.519z" fill="#FFEFE3"/></svg>