<svg width="386" height="573" fill="none" xmlns="http://www.w3.org/2000/svg"><path d="M383.301 513.132l-.338-.673-.675-.672-1.687-.673-.674-.336-.675-.673-.338-.672-3.036-1.345h-7.761l-2.024-1.009-7.423-10.423-.675-2.354-.675-1.681-.675-3.363-1.012-1.345-.675-.336-1.687-.336-1.012-.673-.338-.673v-2.689l-1.012-1.681-2.699-2.354-.675-1.345.337-1.009v-.673l-.337-.672-1.35-1.009-.337-.672-.337-1.009v-.672l.337-1.009v-1.009l-.675-.672-1.687 1.008-1.012.336-.675-.672.337-2.69v-.672l-2.024-2.354-.338-.673v-1.345l.338-1.009.337-1.008-.675-1.009-1.687 1.009-.674-.336-.338-3.026-.675-1.346-2.024-2.017-.338-1.009.338-.673.675-1.008v-.673l-.675-.336-2.699.336-.338.337-.675-1.346 1.35-2.69-.675-.336h-1.012l-1.687.673-.675.336-1.012-.336-.338-.673-.337-.672-.675-.336-.337-.673-1.013-4.035.675-.673 1.35-1.008 1.012-1.009-.337-1.009-2.7-.336-1.012-.672.675-1.009.337-.673v-.672l-.337-.672v-1.009l.337-.337h1.013l.337-.336v-.672l-.337-1.009v-.673l-.675-1.681-1.35-1.345-.674-1.345 1.349-2.354h-.337v-.336l-.675.336-.675.336-.675.337h-.675l-1.012-.673.338-.672.337-.672.337-1.009-1.012-1.681-.337-1.009v-1.009l.337-1.681v-1.009l-.337-1.009-.675-.672v-.673l.675-1.009v-.336l.337-2.69-.337-1.008-2.025-4.036-2.362 2.018-2.024.336-2.025-.672-2.362-1.009v1.345l.675.336-2.361.673-.338.336-.675.673-.675.336-.337-.336-.338-.337-.337-.336H302.997l-.338-.336-1.012-.673-1.012-.336-.675 1.345h-.675l-1.012-.336-3.712-2.018-2.362-.336-.675-.336-.337-.337-.337-.336-.338-1.009-.337-1.008v-.673l.337-1.345v-2.354l1.35-2.353v-1.345l-1.35-1.345-1.687-1.009h-.337v-.337h-1.012l-.338-.336-.337-.336v-.672l-.675-1.009-.338-1.345-.337-.672-3.037-2.018-3.711-1.681-1.35-1.009-1.012-1.345-.338-1.681-.337-3.363-.337-1.681-1.687-3.363-4.049-5.716-1.35-1.345-5.061-4.035-2.025-2.353-.675-2.691-1.012-6.724-1.012-3.363V340.3l1.012-1.681 6.748-7.062 1.013-1.345.675-1.681v-2.017l-.338-1.346-.337-1.344-.338-1.345.338-1.345.675-1.345 1.012-1.009.675-1.009.674-2.69 1.35-3.362 1.35-2.018 1.35-4.035 1.349-2.018.675-1.344v-1.346l-.675-1.344-2.024-2.69-1.013-3.026-1.349-1.009-1.35-.673-.675-1.009.675-2.69 1.35-1.681 1.349-1.345 1.013-1.345 1.687-2.69.674-.672 1.013-.336.675.336.674.336 1.013.336 2.024-.336 1.012-.672 1.013-2.354 2.024-2.018 2.699-1.345 3.037-.336 3.037 1.345 3.374-1.009 1.687-.336h2.024l.338.336 1.35 1.009.674.336h1.012l1.35-.336 6.074-.672 2.024-.673 1.012-.336.675-.337.675-.336 1.012-.336h.675l.675.336h.675l.675-.336-1.688-.336-.337-1.009v-1.009l.337-1.008 1.35-2.691.675-2.353.675-1.009 1.012-.336h1.35l1.012.336.675.672.337 1.682 1.35-.673 1.349-.672 1.013-1.009.337-1.009-.675-1.681-2.699-3.026-.675-1.345-.337-.336-.675-.337h-1.012l-.675.337v.672l.337.673.675 1.008-.337.673-.675.336h-.675l-.675-.336-.337-.337v-6.052l-.338-.336h-.674l-.675-.337-1.013.337h-.674l-.338-.673.338-1.008.674-1.009 3.712-3.699.675-1.345.337-1.681v-1.681l.338-1.346.674-1.68v-.673l4.049-5.716 1.013-1.682.674-2.69v-8.07l-.337-2.69v-1.345l.675-1.344.675-1.009.675-1.345.337-1.345.338-2.69.674-3.026.338-1.346-.338-1.681-.337-1.345-1.687-2.69.675.673V197.394l-.338-.336.675-2.354-.675-3.026-1.35-3.027-1.349-2.017-8.773-8.742-1.35-.673-1.687-1.345-.337-.336h-1.012l-.675-.336-3.374-1.682-1.35-.336-1.35-.672-1.349-1.009-1.012-.673-1.35 1.009-.675 1.345.337 2.354-.674 1.008h-.338l-.337-3.362-4.049-5.044-1.35-4.707-1.349-2.018-1.35-1.681-1.35-.672-1.012-.337-3.037-1.681-4.386-3.362-11.472-10.761-3.712-4.707-2.024-1.681-2.362-1.345-3.037-1.009-9.785 1.009h-.674l-.338 1.009-.337.336-.675-.336-.675-.673-.337-.336-1.35-1.345-4.724-2.354-3.037-1.009-3.374-.336-3.374 1.009-2.699 2.017-2.024 2.691-8.098 14.458-.675 3.363-.338 10.087-1.349 3.026.675.336H217.631l-1.012-.336-.338.336-.337.337-.337.336-.675.336-2.362 2.018-.338-.336-.337-.337 5.061-7.397.675-2.69v-14.795l.675-1.009.337-.673-.337-5.043.337-1.681 1.687-4.708.338-3.026.675-1.681.674-1.682 1.013-1.344 3.036-2.354 1.013-1.345 1.349-8.07-.337-10.088.337-3.362-.675.672.675-2.69-.675-2.69-1.349-2.354-6.748-6.388-.675-1.345-.675-1.681-3.712-5.044-1.349-3.027-.675-1.008-1.012-.672-2.362-1.01-1.012-.672v2.018l.337 1.68h-.675l-.675-1.344-4.724-7.734-6.748-7.06-8.772-7.398-7.424-6.726-.674-.336-.338-.336-.675-1.681-1.349-2.018-1.012-1.008-2.362-.673-14.172-8.406-8.435-6.053-7.086-3.362-5.061-3.026-2.362-2.018-1.349-1.009-3.037-1.009-2.7-2.353-1.349-.673-1.687.336-.338 1.01 1.013 2.017.675 1.009 4.723 2.69 7.086 5.043 5.736 2.354 3.374 2.018 2.699 2.69 1.688 3.026-7.086-6.053-1.013-1.345-.674-.672-4.387-1.01h-.675v-.672l-.674-1.345-2.362-.336-2.362-1.008-4.387-3.027-2.024-1.009-3.711-1.008-2.362-1.009-3.037-2.69-4.386-6.725-2.7-2.69-2.699-1.681-.337.672 4.723 7.062 8.098 9.078 3.037 5.044v1.681l-1.012 1.681-1.35 1.346-1.687.672h-1.687l-4.049 1.009-1.35.672-1.012 1.009-2.024 1.681-.675 1.345v1.01l.675.335v1.009l-1.013 1.009-.674 3.026-.675 1.345-1.35.673h-1.687l-3.037-.337-1.687.673-1.687 1.008-1.35 1.345-1.349 1.01-3.712 1.344-1.012 1.009-.675 1.345-1.35 1.345-3.711 2.69-2.024 2.017-.675 1.682-2.025 1.344-3.374.337h-6.748l-1.687.672-1.012 1.009-1.35 3.027-1.687 2.017-.337.672v.673l.337 1.345v1.009l-1.35 2.017.338 1.009-.338 1.009-.675.672-1.012-.336-.675.336-.674 1.009-1.013 2.017-1.012 1.345-3.711 1.01-1.013 2.017v1.008l.338 1.01 1.687 3.361 1.012.337 1.012.336 1.012.673.338.672V89.458l.337.673.675.336.675.336.675.336.675 1.01 1.012 2.016.675 1.01v1.344l-.338.673-.337.672-2.025 1.682-1.012 2.017v2.354l1.012 2.353 1.013 1.009 5.398 4.372h1.012l1.688-3.027 1.35-1.345 1.686-.672h2.025l1.012.336.675.672 1.012.337h1.012l1.35-.337h1.012l1.012.673 1.013 1.009 2.699 1.345 1.012 1.009.675 1.344v1.346l-.337 1.344-.675 1.346-.675 1.008-1.012 1.009-1.687 1.681-1.35 1.009-.675 1.345-.675 4.035-1.35-.672-2.024.336-10.122 6.052-5.736 1.345-1.35.673-1.35 1.009-2.024 3.026-1.35 1.344-1.687.673-1.35-.336-2.699-1.681-1.687-.336h-1.012l-1.687.336h-.675l-1.012-.336-.675-.673-.675-.336-.675-.337-1.687-.336H37.79l-.337.336.337 1.009.675 1.009.337.672V140.904l-2.024 2.354-.337.336-1.688.336-3.374-.336-1.35 1.009-1.686-.336-1.688-.337-.674 1.345-1.35-.336h-1.687l-1.35.336-.675 1.009-2.361 2.69-1.688 2.69-1.012 3.026-.674 2.69.337 1.682.675.672 1.012.673 1.35 1.008.674 1.346.675 2.353 1.012 1.009.338.672V168.14l-.338.673-.674 1.009-.338 1.008-.337 3.699v1.009l.675 2.017.337.673 1.35 1.008.337.673.338.673h.337l.337.336.338.672-.338 3.027v1.008l-.337 1.345-1.012.337h-2.025l-1.012 1.008-1.012 2.018-.675 1.008-2.362-1.344-1.35.336-2.699.336-1.012.672-.675 1.009-1.012 2.354-3.712 5.716-1.012 1.009-2.7 1.345L0 203.782l1.35 3.027 2.699 2.69 5.736 6.388 6.073 6.389 6.074 6.389 6.073 6.389 5.736 6.389 6.074 6.389 6.073 6.388 6.073 6.389 3.375-.672h1.687l4.723.336 1.013.336 1.012.336.675.336 1.012.336h1.012l4.387-.672 1.687.336.675.336.674.673.675.336h.675l.675-.672 1.012-1.345.675-.672h1.687l3.374 1.344h1.687l1.35-1.008 3.037-3.027 1.35-.672 3.373-1.009 1.013.336.674 1.682 1.013 1.008 3.374-1.345.674 1.009 2.362 5.716 1.35 1.345 1.687 1.345 3.374 2.018 2.025 1.009v2.354l-1.35 4.707v3.026l-.337 1.345-.675 1.345-.675 2.354-.337 4.707-1.013 3.363.338 3.362v1.345l-.338 1.345-.675 1.345-2.361 3.362-.338 1.009-.337 1.009v.673l-.338.672-.674.673-.675.336h-2.362l-2.025 2.354-.337 1.345.337 1.344 1.013 1.01 1.35.672 1.011.336h.675l.338-.336.337-1.009.338-.673h.674l1.013.337.337.673.338 1.344.674.337 1.35-.337 1.35-.336 1.687.673h1.012l.337-.673.338-.672.675-.336h1.687l.675.336 1.012 1.345.337.336h.675l1.35-.673h1.012l.337.337-.337 1.008.337.337H120.456l1.687.336h.675l.675-.673 1.012 1.345 4.386 2.354.675.673.675.672.675.673 1.012.336h1.013l.337.336v1.345l-.675 1.681-2.699 2.69-.675 1.345v.337l.675 1.008.337.337-.337.336-.675 1.009-.338.336-.337 1.345v.673l.337.672 1.013 2.017 1.349 1.009 3.375 1.009 1.687 1.345-.338 1.009-1.012 1.345-.337 1.681.674 1.345 2.7 2.353 1.012 2.018.337.336.338.336v2.018l.337.336h.675l2.362.337 1.012.336.675.672.337.673v.672l-.337.337h-.675l-1.349.672-1.35 1.345-1.012 1.681-.675 1.682.337 1.681.338 1.345-.338 1.008-1.687 1.345-3.037 1.346-1.012 1.008-.675 2.018v2.354l-.337 1.008-.675.673-1.687.672-3.037 2.69-6.41 2.354-2.025 2.018v2.353l1.35 1.681 1.349 1.682.675 2.017-1.349 3.363-.338 1.345 1.35-.673-.338 3.699v.672l.338 1.009v.673l-.338.336H120.456l-.675 2.69-2.024 3.363-.337.672-1.013 3.362-.675.673.338 3.362-.338.673v1.009l.338.336.675.672v.673l-.338.336h-1.012l-.337.337V421l.674.672v.672l-.337.673-.337.337-.338.336-.337.336-2.025 3.362-.674 1.682-.338 2.017.338 4.371-.338 1.681-1.687 6.389-.337 12.441.337 1.346 2.362 4.707v.336l-.337 1.009v.336l.337.336 1.012.337.338.336.675 1.345v1.681l.337 1.345 2.362 5.044v2.354l.337.672v1.009l-1.012 1.345v.672l.675 1.346 1.349 1.008 3.037 1.682 2.362 2.017 1.012.336H126.53l.675.337 1.686 2.017v2.69l-.337 3.026v3.026l.675 2.354v.672l-.338.673-1.012 1.345-.337.673v1.008l1.012 1.682.337 1.008v.673l-.337 1.345v.672l.337 2.018v.672l-.337.673-1.012 1.345-.337 1.009v3.026l.337 1.681.675 1.009h1.012l1.687-.672h1.012l3.037 1.008 1.012.336H136.99v1.009l-1.688 3.026-1.349 1.682v.672l1.687 1.682.675.672.675.336 1.012.336h1.687l1.349-.336 1.35-.336 1.687.672 1.687 1.346 2.025 3.698 1.349 1.681 2.362 2.018.675.672 1.35 2.69.674.673h1.35l.338.336.337.336.675 1.345.337.336 1.012.337 1.688-.337h.674l1.013 1.009.337 1.345.338 1.345 1.349.673.675 1.008 1.687 3.699 1.012 1.345 1.35.673 5.061 1.681 13.159 2.354 3.374 1.345 1.687 1.008 1.35 1.345 1.35 1.682.337 1.681.675 1.681 2.024 1.682 1.687.672 1.35.336h1.35l1.687-.336 2.024-.672 1.35-1.009 1.35-1.345 2.024-3.026 1.012-.673h1.35l8.098.673.675-.337 1.012-.672h.337l.338.336.337.336.338.337v.336l.674.336.675.336h.675l2.362-3.699.675-1.344v-1.682l-.675-1.681-1.35-3.026-.675-1.681 1.013-1.346 6.748-1.008 2.025-1.345v-.673l-.338-1.681v-.672l.675-.337 1.687-.672.675-.337.675-1.008.337-1.009.675-1.009 1.012-.672.337.336.675 1.345.675.673 1.35.672 1.687.336 1.687.336h1.35l1.012-.336.674-.336h1.013l1.349.672.675.673.675 1.681.675.673 2.362.672h3.711l3.375-.672 1.349-1.345 1.35-2.354.675-1.345.337-1.345-.337-2.354v-1.009l.337-.672h1.35l2.362 1.009h1.349l1.35-.337 2.699-1.681 6.411-2.69 2.362-.672h2.699l6.748 1.345h2.362l3.712-1.009 2.362-1.681 5.061-6.389.675-1.345 2.024-5.043.675-.673 1.012-.337 1.687-1.008 1.35-1.009 1.012-1.009 1.012-1.008 1.688-.673 2.024.336 2.699 1.682 1.687.336 6.749-4.035 3.711-1.345 2.362 2.017.675 2.354 1.012 1.682 1.35 1.344 2.024 1.009 1.35.337h1.35l2.699-.337h1.687l.675.337.674.672 1.35 1.008 1.012.337 5.399 1.009h1.012l1.012-.337 3.375-2.689 1.012-.337 1.687.337h1.687l1.012-.673 1.012-.673 1.35-.672 1.35.336 1.349.672 1.013 1.01 1.012.672h1.35l2.361-1.345 3.712-1.345-2.699-5.38zM230.79 129.472l4.049-1.346 4.387-3.362v-.336l-3.374-.672h-3.037l-.338.336-.675 1.008-1.012 1.009-.675 1.681-.337 1.682.337 1.344.675-1.344z" fill="#86899B"/></svg>