<svg width="670" height="767" fill="none" xmlns="http://www.w3.org/2000/svg"><path d="M334.987 651.534c-56.894 0-110.363-27.932-150.552-78.65-40.098-50.601-62.182-117.862-62.182-189.384 0-71.522 22.084-138.783 62.182-189.384 40.189-50.719 93.658-78.65 150.552-78.65 56.893 0 110.362 27.931 150.552 78.65 40.097 50.601 62.181 117.862 62.181 189.384 0 71.522-22.084 138.783-62.181 189.384-40.19 50.718-93.659 78.65-150.552 78.65zm0-532.706c-55.853 0-108.382 27.478-147.917 77.381-39.627 50.013-61.451 116.525-61.451 187.299 0 70.775 21.824 137.287 61.451 187.3 39.535 49.895 92.072 77.381 147.917 77.381 55.852 0 108.381-27.478 147.916-77.381 39.628-50.013 61.451-116.525 61.451-187.3 0-70.774-21.823-137.286-61.451-187.299-39.535-49.903-92.064-77.381-147.916-77.381z" fill="#FFEFE3"/><path d="M334.987 767c-45.251 0-89.143-10.154-130.457-30.176-39.888-19.332-75.713-46.995-106.468-82.23-30.738-35.219-54.879-76.23-71.734-121.888C8.878 485.45.03 435.244.03 383.5c0-51.744 8.847-101.942 26.298-149.206 16.855-45.658 40.996-86.669 71.734-121.888 30.755-35.235 66.58-62.906 106.468-82.23C245.844 10.154 289.736 0 334.987 0c45.251 0 89.142 10.154 130.457 30.176 39.888 19.332 75.713 46.995 106.468 82.23 30.746 35.219 54.879 76.23 71.733 121.888 17.451 47.264 26.298 97.462 26.298 149.206 0 51.744-8.847 101.942-26.298 149.206-16.854 45.658-40.995 86.669-71.733 121.888-30.755 35.235-66.58 62.906-106.468 82.23C424.129 756.846 380.238 767 334.987 767zm0-763.638c-44.739 0-88.136 10.036-128.997 29.84-39.485 19.13-74.949 46.524-105.401 81.424-30.47 34.907-54.401 75.565-71.113 120.845-17.308 46.886-26.088 96.697-26.088 148.037 0 51.341 8.78 101.152 26.088 148.038 16.712 45.272 40.643 85.929 71.113 120.845 30.461 34.891 65.925 62.285 105.401 81.424 40.861 19.795 84.258 29.84 128.997 29.84 44.739 0 88.135-10.037 128.996-29.84 39.485-19.131 74.949-46.524 105.402-81.424 30.47-34.908 54.401-75.565 71.113-120.845 17.308-46.886 26.088-96.697 26.088-148.038 0-51.34-8.78-101.151-26.088-148.037-16.712-45.272-40.643-85.929-71.113-120.845-30.461-34.892-65.925-62.285-105.402-81.424-40.861-19.804-84.257-29.84-128.996-29.84zM102.267 60.376c-20.287 0-36.798-16.533-36.798-36.85a2.499 2.499 0 00-2.502-2.504 2.499 2.499 0 00-2.501 2.505c0 20.316-16.51 36.85-36.799 36.85a2.499 2.499 0 00-2.501 2.504 2.499 2.499 0 002.501 2.505c20.288 0 36.799 16.534 36.799 36.85a2.499 2.499 0 002.501 2.505 2.499 2.499 0 002.502-2.505c0-20.316 16.502-36.85 36.798-36.85a2.5 2.5 0 002.502-2.505 2.504 2.504 0 00-2.502-2.505z" fill="#FFEFE3"/><path d="M604.514 424.51c36.454-.075 40.03-28.847 35.052-38.135 0 0-4.969 15.953-16.661 9.994-11.693-5.951 13.052-19.955-.076-36.53 0-.017-1.007 12.86-13.078 7.455-12.062-5.404 5.549-24.703-5.414-30.663 0 0 .403 5.296-5.968 10.297s-13.421 22.493-4.893 33.664c8.528 11.171-2.065 28.469-20.532 11.894-.008.008 4.046 32.083 31.57 32.024zM617.448 685.064a30.15 30.15 0 00-7.344-19.762c19.994 1.58 35.732 18.324 35.732 38.749 0 21.476-17.383 38.884-38.83 38.884-19.859 0-36.227-14.936-38.544-34.202a30.027 30.027 0 0018.785 6.573c16.679 0 30.201-13.541 30.201-30.242z" fill="#FFEFE3"/><path fill-rule="evenodd" clip-rule="evenodd" d="M79.806 716.273h.025l-18.223-50.458-18.223 50.458h.025a19.322 19.322 0 00-1.209 6.708c0 10.733 8.688 19.441 19.415 19.441 10.72 0 19.415-8.699 19.415-19.441a19.933 19.933 0 00-1.225-6.708zM624.843 62.881l14.698-23.754-22.764 8.078-9.628-20.156-9.628 20.156-22.764-8.078 14.698 23.754-14.698 23.754 22.764-8.077 9.628 20.156 9.628-20.156 22.764 8.077-14.698-23.754z" fill="#FFEFE3"/><path d="M607.611 767H62.363C27.99 767 .03 739.001.03 704.581V62.554C.03 28.134 27.99.134 62.363.134h545.239c34.373 0 62.333 28 62.333 62.42V704.58c.008 34.42-27.951 62.419-62.324 62.419zM62.363 3.497c-32.518 0-58.975 26.494-58.975 59.057V704.58c0 32.563 26.457 59.057 58.975 59.057h545.239c32.518 0 58.976-26.494 58.976-59.057V62.554c0-32.563-26.458-59.057-58.976-59.057H62.363z" fill="#FFEFE3"/><path d="M62.825 767C28.2 767 .03 738.791.03 704.119c0-34.673 28.17-62.882 62.795-62.882 34.624 0 62.794 28.209 62.794 62.882 0 34.672-28.17 62.881-62.794 62.881zm0-122.401c-32.77 0-59.437 26.696-59.437 59.52 0 32.815 26.659 59.519 59.437 59.519s59.437-26.696 59.437-59.519c0-32.815-26.668-59.52-59.437-59.52zM607.149 767c-34.625 0-62.795-28.209-62.795-62.881 0-34.673 28.17-62.882 62.795-62.882s62.794 28.209 62.794 62.882c0 34.672-28.169 62.881-62.794 62.881zm0-122.401c-32.77 0-59.437 26.696-59.437 59.52 0 32.815 26.659 59.519 59.437 59.519s59.437-26.696 59.437-59.519c0-32.815-26.659-59.52-59.437-59.52zM607.149 125.763c-34.625 0-62.795-28.209-62.795-62.882C544.354 28.21 572.524 0 607.149 0s62.794 28.209 62.794 62.881c0 34.673-28.169 62.882-62.794 62.882zm0-122.4c-32.77 0-59.437 26.695-59.437 59.518 0 32.824 26.659 59.52 59.437 59.52s59.437-26.696 59.437-59.52c0-32.823-26.659-59.519-59.437-59.519zM607.149 446.381c-34.625 0-62.795-28.208-62.795-62.881s28.17-62.881 62.795-62.881 62.794 28.208 62.794 62.881-28.169 62.881-62.794 62.881zm0-122.4c-32.77 0-59.437 26.696-59.437 59.519 0 32.823 26.659 59.519 59.437 59.519s59.437-26.696 59.437-59.519c0-32.823-26.659-59.519-59.437-59.519zM60.331 424.51c36.455-.075 40.031-28.847 35.053-38.135 0 0-4.969 15.953-16.662 9.994-11.692-5.951 13.053-19.955-.075-36.53 0-.017-1.007 12.86-13.078 7.455-12.062-5.404 5.549-24.703-5.414-30.663 0 0 .403 5.296-5.968 10.297-6.37 5.001-13.422 22.493-4.893 33.664 8.528 11.171-2.065 28.469-20.532 11.894-.008.008 4.046 32.083 31.57 32.024z" fill="#FFEFE3"/><path d="M62.967 446.381C28.343 446.381.173 418.173.173 383.5s28.17-62.881 62.794-62.881c34.625 0 62.795 28.208 62.795 62.881s-28.17 62.881-62.795 62.881zm0-122.4c-32.77 0-59.437 26.696-59.437 59.519 0 32.823 26.66 59.519 59.437 59.519 32.778 0 59.437-26.696 59.437-59.519 0-32.823-26.659-59.519-59.437-59.519zM62.967 125.763C28.343 125.763.173 97.554.173 62.881.173 28.21 28.343 0 62.967 0c34.625 0 62.795 28.209 62.795 62.881 0 34.673-28.17 62.882-62.795 62.882zm0-122.4C30.197 3.362 3.53 30.057 3.53 62.88c0 32.824 26.66 59.52 59.437 59.52 32.778 0 59.437-26.696 59.437-59.52 0-32.823-26.659-59.519-59.437-59.519zM100.84 291.561c-3.727-1.614-6.522-3.959-7.193-9.036-.529-3.455-2.711-3.976-6.069-5.556-9.426-4.396-12.188-5.691-19.314-8.767-3.4-1.471-6.044-2.807-9.284-.79-3.4 2.085-6.303 2.387-11.508.143-8.335-3.606-8.108-6.632-3.978-16.214l6.782-15.735c2.803-6.506 5.674-7.876 11.827-7.296 4.793.504 8.721.739 18.752 4.034 5.582 1.698 8.645 4.388 9.527 2.354.789-1.841-3.929-3.715-10.417-8.28-3.752-2.303-9.443-6.85-12.608-8.64-6.816-4.934-6.48-6.775-3.5-13.693 2.77-6.422 3.29-7.338 5.985-13.894 3.181-7.683 6.127-9.759 15.15-5.867 3.812 1.647 5.885 3.782 6.75 6.985.856 3.824 3.768 5.598 9.048 7.758 2.938 1.177 13.883 5.901 17.006 7.254 4.91 2.118 6.53.841 8.646.092 3.021-1.202 5.447-1.622 11.096.824 8.747 3.783 5.196 10.062.353 21.291-3.601 8.347-5.867 12.255-14.421 8.557-3.013-1.303-5.397-2.656-6.404-4.757-1.201-2.505-2.3-4.321-5.431-5.893-2.753-1.387-7.773-3.555-17.082-7.38-4.944-2.042-7.092-3.16-7.848-1.403-.789 1.84 2.258 3.059 6.9 6.11 9.544 6.304 16.595 11.533 23.864 15.946 11.726 7.346 12.49 7.48 8.738 16.18-2.535 5.875-5.859 6.951-11.676 5.8-4.936-.992-26.676-6.414-34.969-8.439-4.23-.984-7.353-2.034-8.108-.278-.689 1.589 1.544 2.749 5.657 4.531 6.522 2.824 12.07 5.119 19.39 8.38 2.602 1.127 3.962 1.286 6.757.32 4.751-1.597 6.606-.698 9.821.689 7.017 3.034 5.607 7.439 1.217 17.626-3.5 8.322-5.616 10.431-13.456 7.044zM139.419 204.926c-4.071-3.463-4.609-5.061-5.507-9.078-.856-3.749-2.157-6.229-5.523-11.6-5.019-7.8-6.74-10.994-11.348-17.937-3.215-4.85-4.768-4.682-7.672-4.489-2.468.177-5.456.656-9.309-2.74-6.732-5.926-4.97-8.506 7.361-23.048 16.956-19.988 13.145-16.323 31.041-7.497 8.503 4.211 15.965 7.926 27.616 13.961 4.557 2.387 6.438 3.085 9.837 2.95 3.861.026 6.17 1.362 8.864 3.774 7.32 6.616 6.74 8.129-3.995 20.972-9.385 11.247-10.946 13.407-17.863 7.523-2.409-2.051-4.138-3.757-4.163-6.918-.159-3.042-.352-3.833-2.971-5.27-3.417-1.883-4.004-2.9-6.17-.345l-6.866 8.095c-1.486 1.757-.915 2.597 1.897 6.405 1.754 2.513 3.29 2.404 5.322 2.875 2.316.319 3.836.235 7 2.933 6.262 5.321 5.154 7.136-2.577 16.248-5.733 6.657-8.394 8.784-14.974 3.186zm-.815-46.76c1.914-2.253 1.36-3.127-1.661-4.783-1.906-.992-5.624-3.017-9.662-5.194-3.727-2.035-4.49-2.329-5.498-1.144-1.007 1.186-.369 1.959 1.671 4.96 2.761 4.001 4.902 6.917 6.656 9.431 1.914 3 2.955 3.261 4.751 1.143l3.743-4.413zM268.516 98c-.78-5.296-.126-6.843 1.847-10.457 1.83-3.379 2.484-6.11 3.5-12.365 1.368-9.178 2.182-12.717 3.29-20.98.781-5.766-.495-6.665-2.812-8.439-1.972-1.496-4.532-3.11-5.187-8.212-1.158-8.901 1.872-9.674 20.724-12.448 25.912-3.816 20.633-3.581 28.263 14.886 3.609 8.775 6.765 16.508 11.55 28.738 1.855 4.808 2.803 6.573 5.447 8.717 2.879 2.572 3.735 5.102 4.172 8.69 1.133 9.81-.294 10.567-16.821 13.113-14.463 2.245-17.057 2.841-18.383-6.152-.462-3.136-.638-5.556 1.427-7.952 1.88-2.395 2.258-3.11 1.242-5.926-1.326-3.673-1.099-4.825-4.406-4.337l-10.493 1.546c-2.275.337-2.4 1.354-2.795 6.06-.336 3.044.89 3.985 2.099 5.675 1.527 1.773 2.719 2.715 3.323 6.825 1.192 8.136-.822 8.767-12.649 10.507-8.679 1.227-12.079 1.059-13.338-7.49zm30.201-35.665c2.921-.429 3.081-1.454 1.906-4.69-.781-2-2.233-5.985-3.836-10.289-1.461-3.984-1.839-4.715-3.375-4.488-1.536.227-1.569 1.227-2.006 4.833-.562 4.825-.873 8.44-1.209 11.482-.537 3.522.076 4.404 2.821 4l5.699-.848zM186.458 145.331c-2.049-3.514-2.905-7.061-.437-11.549 1.62-3.094.168-4.808-1.595-8.07-4.977-9.136-6.438-11.818-10.358-18.534-1.88-3.227-3.206-5.85-7.025-6.178-3.971-.344-6.472-1.79-9.351-6.724-4.575-7.85-2.594-10.154 6.404-15.416l14.782-8.64c6.111-3.573 9.233-2.976 13.85 1.15 3.559 3.254 6.581 5.775 12.708 14.383 3.492 4.681 4.591 7.7 6.505 6.59 1.729-1.01-1.074-3.564-3.727-11.911-1.628-4.102-3.517-11.137-5.002-14.457-2.569-8.02-1.209-9.305 5.296-13.105 6.035-3.53 7.001-3.95 13.053-7.632 7.109-4.295 10.719-4.22 15.671 4.279 2.09 3.589 2.501 6.54 1.293 9.632-1.579 3.59-.286 6.75 2.694 11.617 1.67 2.69 7.68 12.994 9.401 15.936 2.695 4.624 4.768 4.556 6.908 5.204 3.148.823 5.347 1.933 8.444 7.253 4.802 8.238-1.779 11.188-12.33 17.349-7.84 4.581-11.978 6.38-16.679-1.681-1.653-2.841-2.77-5.337-2.342-7.632.521-2.723.705-4.842-.881-7.968-1.393-2.749-4.155-7.481-9.376-16.089-2.77-4.58-3.836-6.758-5.489-5.79-1.73 1.008.008 3.807 1.939 9.01 3.945 10.75 6.53 19.139 9.77 27.015 5.087 12.886 5.624 13.44-2.552 18.215-5.523 3.227-8.83 2.118-12.834-2.261-3.391-3.732-17.677-21.006-23.159-27.562-2.811-3.169-4.725-5.859-6.354-4.909-1.494.874-.386 3.136 1.872 7.01 3.584 6.145 6.69 11.289 10.644 18.257 1.426 2.455 2.425 3.396 5.254 4.27 4.768 1.538 5.733 3.371 7.496 6.388 3.853 6.615.109 9.322-9.46 14.912-7.764 4.572-10.727 5.018-15.033-2.362zM371.391 74.372c3.752-11.802 12.364-18.686 22.093-15.584 6.832 2.177 10.232 7.842 7.277 17.13-2.359 7.405-9.317 4.968-10.618 9.045-.697 2.193 1.553 5.261 5.985 6.421 4.977 1.303 7.546-2.244 10.081-10.22 2.056-6.473 4.549-12.735 5.842-18.098 1.041-4.253 1.595-7.178-.764-9.22-4.768-3.934-5.649-6.288-3.593-12.76 2.317-7.296 6.615-7.212 23.008-1.992 13.287 4.236 18.038 6.438 15.587 14.163-1.695 5.33-3.215 8.927-6.287 9.044-2.761.219-5.229 1.564-6.866 6.321-1.981 5.926-5.557 15.803-7.151 20.82-5.347 16.812-18.358 26.007-37.026 20.056-15.159-4.825-23.234-17.29-17.568-35.126zM426.807 115.374c-2.577-9.734-.848-22.678 8.713-34.942 15.168-19.518 37.176-23.813 55.366-9.717 8.083 6.254 11.802 14.004 13.245 22.308 2.158 11.491-1.082 23.267-10.542 35.463-15.588 20.03-35.641 20.728-52.596 7.582-7.874-6.136-12.272-13.129-14.186-20.694zm44.337 7.346c7.042-8.582 11.147-34.916 2.006-42.364-4.038-3.286-9.594-1.9-14.371 4.212-7.453 9.573-8.998 34.723-.193 41.027 4.105 2.9 8.579 1.95 12.558-2.875z" fill="#FFEFE3"/><path d="M481.854 150.433c2.283-2.194 3.827-3.262 7.059-3.211 3.525.176 5.154 1.101 8.772-2.37 1.511-1.446 1.578-3.884 2.77-8.339.612-2.042 3.802-10.893 5.111-15.054 1.897-5.758 2.896-8.994 2.493-13.079-.402-4.875-.495-5.447 5.255-10.969 6.875-6.598 9.77-3.58 20.204 7.321 9.116 9.524 11.768 12.936 3.962 20.434-1.981 1.908-4.466 3.244-7.244 3.018-2.971-.421-4.583-.202-5.632 1.849-1.436 3.076-3.819 8.674-4.13 9.473-.73 1.614-1.259 2.656-.21 3.757 1.116 1.168 2.846.42 5.112-.185 5.112-.967 9.754-2.774 11.172-4.144 1.209-1.286 1.738-2.463 1.88-3.917.009-2.37 1.066-4.589 4.39-7.775 5.842-5.606 7.756-5.211 17.812 5.766 6.606 7.204 6.539 9.381.227 15.441-3.794 3.64-5.75 3.161-10.022 2.665-4.936-.404-6.338.033-11.374 1.429-6.061 1.756-10.224 3.101-18.702 5.614-3.752.833-4.264 1.858-6.807 4.296-3.232 3.101-2.787 3.875-2.577 6.161.269 3.303-.185 5.682-4.6 9.927-6.077 5.833-9.116 3.614-18.894-6.599-10.308-10.809-13.682-14.163-6.027-21.509z" fill="#FFEFE3"/><path d="M536.422 162.117c21.598-11.81 41.634-7.288 50.481 8.666 3.148 5.673 2.929 8.909 2.342 12.347-.336 1.866-.991 2.707-.386 3.808.94 1.698 5.128-.664 8.1 3.329 3.441 4.858 1.418 6.186-5.297 14.163-10.744 12.65-17.887 13.642-22.571 8.582-6.58-6.876-4.222-11.986-.235-20.636 3.433-7.111 2.283-12.146-2.577-15.668-4.583-3.093-13.237-.403-19.759 7.675-5.766 7.212-7.663 14.457-3.618 21.753 2.728 4.917 7.06 8.733 11.173 11.885 4.171 3.018 2.753 7.91-3.584 8.868-10.644 1.816-23.327-.235-31.897-15.684-10.316-18.652-3.106-37.682 17.828-49.088z" fill="#FFEFE3"/><path d="M542.357 231.478c4.239-1.798 5.926-1.992 10.266.328 3.441 1.841 4.977.942 8.687-.067 6.463-1.782 17.342-6.439 21.883-8.582 4.172-1.958 5.372-3.379 5.951-5.707.831-3.556 1.242-5.43 7.143-7.792 8.235-3.304 10.87-.816 13.808 6.548 1.838 4.606 5.909 17.122 10.702 28.217 1.469 3.345 3.383 4.606 4.936 8.489 1.695 4.245 1.679 6.288-8.788 15.122-10.526 8.758-15.462 9.036-20.011.966-2.275-4.244-.932-7.069 3.802-11.086 5.473-4.901 4.894-6.506 2.913-11.86-2.435-6.565-4.944-7.944-10.535-5.994-.755.202-3.189 1.186-4.465 1.791-1.301.613-2.434 1.874-2.157 2.572.831 2.084 2.132 1.462 4.876 1.269 3.324-.529 4.122.252 5.7 2.74 2.107 3.178-.688 6.237-4.004 8.565-9.552 6.439-17.845 8.154-20.607 3.01-1.771-3.22-1.091-4.489 1.167-6.817 1.645-1.757 2.241-2.925 1.763-4.119-.344-.857-2.451-.824-7.219 1.093-7.932 3.177-7.378 6.245-4.684 13.633 1.419 3.875 4.608 6.212 12.725 5.271 3.929-.479 6.631-.244 8.226 3.757 3.408 8.523.135 11.835-12.775 13.978-14.488 2.396-16.855 3.211-18.97-2.059-1.31-3.598-.924-6.17-3.039-11.474l-12.498-31.259c-1.839-4.581-2.51-7.145 5.204-10.533z" fill="#FFEFE3"/><path d="M78.995 493.393c.208.948.208 1.93 0 2.878-.524 3.489-3.053 5.495-8.025 6.891-8.198 2.355-12.472 0-14.652-7.763L52.13 480.92c5.93-1.482 12.298-3.401 21.369-6.018 9.07-2.616 15.787-4.535 21.282-6.367l4.186 14.217c2.093 7.414 0 11.775-8.286 14.304-4.71 1.308-7.5 1.134-9.681-.785a9.589 9.589 0 01-1.832-2.965l-.174.087zm-8.722 1.832c4.622-1.309 5.756-3.315 4.71-6.978-.437-1.483-1.047-3.227-1.57-5.059l-12.124 3.576c.523 2.093.96 3.663 1.395 5.146 1.047 3.751 2.53 4.797 7.589 3.315zm22.154-12.037a104.9 104.9 0 00-1.57-5.059l-11.862 3.489c.436 1.832.96 3.489 1.395 4.972 1.047 3.489 3.402 4.361 7.763 3.052 4.36-1.308 5.32-3.14 4.274-6.454zM107.08 506.477c-3.227.96-11.252 3.925-20.671 7.501l-14.043 5.321c1.047 2.791 2.53 6.803 3.838 9.943l-3.402 1.308-3.663 1.309-6.629-17.445c2.617-.959 12.036-4.361 20.846-7.762 10.292-3.838 17.008-6.28 20.846-7.937l2.878 7.762zM80.826 557.412c1.483-.872 4.797-3.14 8.722-5.931l-2.442-4.972-2.268-4.884c-4.622 1.221-8.722 2.355-10.292 2.966l-3.576-7.501c10.99-2.355 38.639-9.42 44.134-10.728l5.407 11.338c-4.448 3.576-27.125 20.497-35.934 27.911l-3.75-8.199zm32.969-23.637l-8.722 2.268-14.042 3.838c.61 1.482 1.308 2.878 1.832 3.925l1.918 3.924 11.95-8.722 7.064-5.146v-.087zM87.978 571.284l2.79-1.57 3.228-2.007c3.14 0 15.787-.784 24.858-1.308 3.314 0 6.803-.436 9.332-.436a49.692 49.692 0 01-3.052-4.971c-2.966-4.885-4.187-6.716-5.234-8.722a33.34 33.34 0 003.14-1.832l3.14-1.832 12.647 21.108-2.878 1.657-3.227 2.006c-3.228 0-14.566 1.221-23.811 1.57-3.838 0-6.978.698-9.595.785a78.45 78.45 0 012.617 4.099c2.529 4.274 4.099 6.716 5.495 8.722l-3.751 2.181-2.791 1.744-12.908-21.194zM105.249 598.931c4.884-3.227 10.553-7.24 18.316-12.647 7.762-5.408 13.432-9.42 18.142-12.909l4.71 6.803c-4.885 3.227-10.467 7.152-18.229 12.647-7.763 5.495-13.432 9.333-18.142 12.909l-4.797-6.803zM166.913 605.908c-3.227 2.529-9.943 8.024-17.444 14.042l-17.444 14.217-5.495-6.542c2.529-4.012 8.111-13.78 12.472-22.066a96.712 96.712 0 017.588-10.205c-3.75 3.402-7.065 6.367-10.03 8.722-8.722 7.501-14.915 12.472-17.444 14.566l-4.623-5.582 17.444-14.043c7.24-6.018 12.996-10.728 17.444-14.304l6.193 7.501c-1.919 2.878-7.327 12.996-12.473 21.543a61.041 61.041 0 01-6.192 8.722 219.616 219.616 0 019.245-8.722c5.408-4.448 12.734-10.815 15.961-13.693l4.798 5.844zM172.582 633.731l1.57-1.483c3.663-3.838 3.664-6.367 1.309-8.722-2.355-2.355-6.455-2.529-15.264 6.455-8.809 8.983-9.943 12.995-6.541 16.31 3.401 3.314 5.494 1.657 11.425-4.798l-4.535-4.186 1.832-1.832a31.454 31.454 0 002.442-2.616c1.483 1.657 3.14 3.14 4.361 4.361 1.221 1.221 3.401 3.401 5.494 5.233-10.815 12.385-17.444 16.746-26.166 8.722-7.152-6.803-4.797-15.525 5.932-26.777 10.728-11.251 18.752-12.996 26.166-6.018a11.944 11.944 0 013.346 14.585 11.955 11.955 0 01-3.346 4.167c-.611.611-1.222 1.309-2.006 2.007l-2.617-2.704a38.825 38.825 0 00-3.402-2.704zM202.411 665.654a6.964 6.964 0 011.919 2.093c1.745 3.053 1.047 6.193-2.006 10.467a10.03 10.03 0 01-16.223 3.052l-12.385-8.722c3.663-4.797 7.588-10.292 12.996-17.967 5.407-7.676 9.507-13.432 12.647-18.316l12.123 8.722c6.28 4.448 7.676 8.722 2.442 16.31-2.791 3.925-5.146 5.495-8.024 5.408a9.95 9.95 0 01-3.314-1.134l-.175.087zm-5.669 6.89c2.791-3.925 2.442-6.192-.698-8.722l-4.361-2.965-7.239 10.292c1.657 1.308 3.053 2.268 4.274 3.14 3.227 2.616 5.058 2.529 8.024-1.745zm9.769-23.288c-1.309-.959-2.704-1.831-4.361-2.878l-7.065 10.031a49.552 49.552 0 004.099 3.052c3.053 2.006 5.408 1.221 8.024-2.442 2.617-3.663 2.355-5.582-.697-7.763zM232.066 657.542c-1.832 2.879-6.018 10.292-10.902 19.189l-7.153 13.17 9.333 5.059-1.744 3.14-1.919 3.401-16.398-8.722 10.903-19.363c5.233-9.594 8.722-15.786 10.554-19.537l7.326 3.663zM246.458 713.274c.523-1.57 1.395-5.495 2.442-10.379l-5.059-2.007-5.059-2.005c-2.529 4.012-4.535 7.413-5.495 9.158l-7.762-3.14c6.541-9.246 22.067-33.144 25.206-37.854l11.775 4.71c-.872 5.669-6.105 33.493-7.588 44.919l-8.46-3.402zm8.198-39.685l-4.797 7.413c-2.267 3.751-5.058 8.199-7.675 12.386 1.396.697 2.878 1.221 3.925 1.657l4.099 1.657c1.134-4.884 2.181-10.118 3.053-14.479.872-4.361 1.221-6.454 1.657-8.722l-.262.088zM272.275 707.869c-1.309 4.885-.436 6.629 3.489 7.589 3.925.959 5.233 0 5.931-3.228a8.725 8.725 0 00-4.274-9.594c-7.676-5.495-9.333-10.379-7.589-17.444a10.718 10.718 0 015.582-7.486 10.736 10.736 0 019.333-.276c8.722 2.18 11.426 6.803 9.507 14.391 0 1.134-.61 2.268-1.046 3.576l-3.402-.96c-1.308 0-2.704-.697-3.663-.784 0-1.134.61-2.181.872-3.315.872-3.402 0-5.233-3.838-6.192-3.838-.96-4.971 0-5.669 3.052-.698 3.053-.523 5.582 4.361 8.722a15 15 0 017.326 17.444 10.997 10.997 0 01-5.395 8.079 10.998 10.998 0 01-9.694.643c-9.419-2.355-11.774-7.762-9.943-14.914.239-1.184.56-2.35.96-3.489l3.576 1.046 4.099.873-.523 2.267zM294.953 725.749c1.047-5.756 2.006-12.646 3.315-21.979 1.308-9.333 2.354-16.223 2.965-21.979l8.286 1.133c-1.047 5.757-2.006 12.56-3.314 21.98-1.309 9.42-2.355 16.136-2.966 22.067l-8.286-1.222zM333.242 729.064c0-1.744-.523-5.756-1.221-10.641h-10.903c-.959 4.623-1.744 8.722-2.093 10.467h-8.722c3.053-10.903 9.507-38.639 10.903-44.134h12.56c1.133 5.67 5.669 33.493 8.198 44.744l-8.722-.436zm-5.844-40.121c-.436 2.093-1.134 5.059-1.919 8.722-.784 3.663-2.006 9.42-3.052 14.217H331.149c-.698-4.972-1.396-10.205-2.093-14.566-.698-4.361-1.047-6.454-1.396-8.722l-.262.349zM372.578 681.443c.436 4.099 1.309 12.734 2.443 22.066 1.133 9.333 1.919 16.485 2.616 22.154l-8.722 1.047c-1.919-4.274-7.152-14.304-11.687-22.503a97.603 97.603 0 01-4.536-11.862c.872 4.972 1.57 9.42 2.094 13.258 1.482 11.6 2.354 19.275 2.79 22.415l-7.064.785c-.611-5.756-1.396-12.647-2.53-22.067-1.133-9.419-1.919-16.746-2.704-22.154l9.682-1.133c1.395 3.227 6.89 13.257 11.338 22.154a63.63 63.63 0 013.838 9.943c-.872-4.187-1.657-8.286-2.093-12.386-.785-6.977-2.18-16.571-2.878-20.845l7.413-.872zM397.698 674.812c8.111-2.529 13.606.001 17.444 11.862 3.837 11.862.523 16.834-7.85 19.363l-4.187 1.221c1.483 4.449 2.791 8.286 3.925 11.339l-8.198 2.529c-1.745-6.192-3.577-12.298-6.368-21.368-2.791-9.071-4.884-15.526-6.89-21.195l12.124-3.751zm9.681 14.043c-2.093-6.89-4.535-8.024-8.722-6.716l-3.401 1.046c1.918 6.019 3.663 11.863 5.32 17.009a26.424 26.424 0 002.966-.785c4.797-1.483 6.018-3.576 3.837-10.554zM433.459 660.337c0 .697.959 2.093 1.396 3.14l1.657 3.489-13.258 6.018 4.623 10.204c4.622-2.093 8.722-4.099 12.821-6.018l2.966 6.28-12.996 5.844 4.884 10.641 13.258-6.106 1.57 3.664c0 .959 1.134 2.442 1.57 3.227l-20.41 9.42c-2.18-5.234-5.146-11.601-8.722-20.235-3.576-8.635-7.065-15.526-9.42-20.148l20.061-9.42zM448.024 651.697c7.152-4.448 13.17-3.227 19.625 7.239 6.454 10.467 4.622 16.136-2.791 20.672-1.483.959-2.443 1.395-3.838 2.18 2.529 4.013 4.797 7.414 6.629 10.031l-7.327 4.535c-3.227-5.582-6.454-10.99-11.426-19.101-4.972-8.112-8.722-13.868-11.862-18.84l10.99-6.716zm12.821 11.164c-3.75-6.105-6.367-6.628-10.117-4.273l-2.966 1.831c3.314 5.408 6.455 10.554 9.42 15.177l2.617-1.57c4.186-2.617 4.884-4.885 1.046-11.165zM471.487 635.213c6.629-5.233 12.734-4.797 20.322 4.885 7.589 9.681 6.542 15.438 0 20.846a40.544 40.544 0 01-3.488 2.616 437.741 437.741 0 007.675 9.245l-6.716 5.321c-3.838-5.146-7.763-10.205-13.606-17.444-5.844-7.239-10.118-12.734-13.956-17.444l9.769-8.025zm14.043 9.595c-4.449-5.67-7.065-5.844-10.554-3.14l-2.704 2.268 11.077 13.868a21.781 21.781 0 002.442-1.832c3.925-3.053 4.274-5.408-.261-11.164zM528.79 643.497c-1.395-1.047-4.535-3.489-8.722-6.367l-3.925 3.838-3.837 3.837c2.704 3.925 4.971 7.152 6.192 8.722l-6.018 5.931c-5.844-9.681-21.543-33.492-24.509-38.202l8.722-8.722c4.797 3.053 28.26 19.014 38.115 24.858l-6.018 6.105zm-33.143-23.288l4.884 7.327c2.529 3.576 5.495 7.937 8.286 12.036l3.14-3.052 3.053-3.053c-4.013-2.966-8.722-6.018-11.95-8.722-3.227-2.704-5.407-3.751-7.239-4.972l-.174.436zM540.13 610.969c4.012 3.052 5.931 3.052 8.722 0 2.791-3.053 1.919-4.885-.524-6.803a8.721 8.721 0 00-10.553 0 14.657 14.657 0 01-18.84 0 10.825 10.825 0 01-4.605-8.145 10.807 10.807 0 01.748-4.739 10.806 10.806 0 012.723-3.95c5.582-7.326 10.815-7.675 17.008-2.965.96.697 1.832 1.482 2.879 2.354l-2.181 2.792-2.268 3.052-2.617-2.18c-2.791-2.093-4.797-2.181-7.239 1.046-2.442 3.228-1.744 4.71.524 6.455 2.267 1.744 4.884 2.704 10.117 0a14.826 14.826 0 0118.491 0 10.897 10.897 0 014.667 13.267 10.905 10.905 0 01-2.836 4.177c-5.931 7.675-11.774 7.675-17.444 3.227l-2.878-2.355a31.967 31.967 0 002.355-2.791c1.047-1.308 1.832-2.529 2.529-3.402l1.222.96zM576.413 580.876c-1.57-.698-5.233-2.355-9.768-4.186l-2.966 4.622c-.698 1.221-1.744 2.879-2.878 4.623a288.468 288.468 0 008.111 7.065l-4.448 7.065c-7.937-8.025-28.695-27.475-32.795-31.4l6.716-10.728c5.408 1.832 31.836 11.775 42.826 15.264l-4.798 7.675zm-37.679-14.915c1.657 1.396 3.838 3.489 6.542 6.019l10.815 9.681 2.355-3.576 2.268-3.75-13.694-5.495-8.111-3.14-.175.261zM556.266 523.573c3.314 1.831 6.716 3.576 11.774 6.018l15.613 7.588a13.531 13.531 0 017.045 7.766 13.525 13.525 0 01-.625 10.466 13.519 13.519 0 01-18.369 6.015c-5.233-2.616-11.426-5.843-15.438-7.762-4.012-1.919-8.722-4.1-12.037-5.67l3.664-7.5c6.279 3.314 20.06 10.117 27.3 13.693 4.535 2.181 7.239 1.657 8.722-2.006 1.482-3.663.436-5.669-4.187-7.937l-27.387-13.257 3.925-7.414zM594.381 504.556c9.768 3.664 13.78 10.031 10.815 17.968-2.966 7.937-10.641 11.251-26.777 5.146-16.136-6.106-19.537-12.298-16.048-21.456 3.488-9.159 10.03-9.944 18.49-6.717l3.489 1.483c-.523 1.221-1.046 2.442-1.483 3.663l-1.308 3.576-2.704-1.133c-6.279-2.355-8.722-1.047-9.594 2.093-.872 3.14 0 6.192 11.949 10.728 11.949 4.535 15.438 3.663 16.834 0 1.395-3.663-.611-5.756-6.28-7.937l-2.181-.785 1.483-3.576c0-1.221.96-2.442 1.308-3.751l2.007.698zM575.105 468.362l3.314.96 3.751 1.046c-1.483 5.146-2.966 9.943-4.1 14.043l10.816 3.052c1.395-4.884 2.703-9.506 3.75-13.693l6.716 1.919c-1.221 4.099-2.617 8.722-4.012 13.693l11.251 3.228c1.134-4.1 2.617-9.159 4.012-14.043l3.751 1.134 3.489.959-6.193 21.718c-5.495-1.744-12.211-3.663-21.369-6.28-9.158-2.616-16.31-4.71-21.369-5.931l6.193-21.805z" fill="#FFF4EA"/></svg>