<svg width="628" height="159" fill="none" xmlns="http://www.w3.org/2000/svg"><path d="M.425 147.969c0-3.981 1.063-6.302 3.681-8.4 2.62-2.102 3.573-3.411 3.573-7.392v-18.573c0-3.598-.707-6.001-2.975-7.688C2.793 104.607.23 102.915.23 96.832c0-8.29 1.856-10.201 11.35-10.201 3.057 0 17.871-.192 24.067-.192 17.816 0 25.485 6.982 25.485 22.883-.082 14.67-7.856 25.281-24.965 24.98-5.676-.109-8.897.192-8.897 2.289 0 .602.603 1.09 3.33 3.001 3.331 2.207 3.847 4.989 3.847 8.4 0 7.88-1.912 10.201-17.624 10.091C2.199 157.951.425 155.958.425 147.969zm40.682-36.928c0-5.481-5.238-8.317-11.762-8.016-4.284.191-3.572.492-3.572 8.098 0 6.083.98 7.201 7.802 6.982 4.256-.11 7.532-2.481 7.532-7.064zM123.425 147.969c0-3.981 1.063-6.302 3.681-8.4 2.619-2.102 3.573-3.411 3.573-7.392v-18.573c0-3.598-.712-6.001-2.975-7.688-1.911-1.309-4.475-3.001-4.475-9.084 0-8.29 1.856-10.201 11.351-10.201 3.056 0 17.87-.192 24.066-.192 17.816 0 25.485 6.982 25.485 22.883-.082 14.67-7.856 25.281-24.965 24.98-5.676-.109-8.897.192-8.897 2.289 0 .602.603 1.09 3.331 3.001 3.33 2.207 3.846 4.989 3.846 8.4 0 7.88-1.912 10.201-17.624 10.091-14.65-.132-16.397-2.125-16.397-10.114zm40.682-36.928c0-5.481-5.238-8.317-11.762-8.016-4.284.191-3.572.492-3.572 8.098 0 6.083.981 7.201 7.802 6.982 4.256-.11 7.532-2.481 7.532-7.064zM185.851 147.969c0-3.981 1.062-6.302 3.681-8.4 2.619-2.102 3.573-3.411 3.573-7.392v-18.573c0-3.598-.708-6.001-2.975-7.688-1.912-1.309-4.476-3.001-4.476-9.084 0-8.29 1.857-10.201 11.351-10.201 3.057 0 17.871-.192 24.067-.192 17.816 0 25.485 6.982 25.485 22.883-.082 14.67-7.856 25.281-24.965 24.98-5.676-.109-8.897.192-8.897 2.289 0 .602.602 1.09 3.331 3.001 3.33 2.207 3.846 4.989 3.846 8.4 0 7.88-1.912 10.201-17.625 10.091-14.622-.132-16.396-2.125-16.396-10.114zm40.682-36.928c0-5.481-5.238-8.317-11.762-8.016-4.284.191-3.572.492-3.572 8.098 0 6.083.981 7.201 7.801 6.982 4.257-.11 7.533-2.481 7.533-7.064zM62.172 148.647c-.082-4.199.356-5.7 3.846-8.591 2.783-2.289 2.537-3.899 2.975-7.392.707-6.083.438-16.881.164-21.464-.274-4.2-1.036-5.7-2.892-6.982-2.784-1.91-4.285-2.891-4.285-8.7 0-8.099 3.057-9.49 10.476-9.49 4.64 0 16.89.79 28.158.493 3.408-.11 5.156-1.31 9.084-1.31 4.284 0 6.031.712 10.042 12.573 3.928 11.888 2.454 16.17-6.114 17.292-4.448.493-6.465-1.61-8.294-6.981-2.345-6.298-3.928-6.353-9.248-6.49-6.52-.164-8.596 1.501-8.87 6.9-.081.707-.081 3.11 0 4.391.083 1.309.79 2.7 1.474 2.7 2.099 0 2.022-1.309 2.783-3.707.712-3.001 1.666-3.411 4.367-3.899 3.494-.707 5.155 2.699 6.031 6.302 2.263 10.283.871 17.889-4.53 18.491-3.409.41-4.284-.602-5.512-3.302-.953-1.992-1.747-2.891-2.974-2.891-.872 0-1.584 1.802-1.584 6.489 0 7.798 2.866 8.373 10.179 8.592 3.846.109 6.985-1.802 9.006-8.998.954-3.488 2.099-5.7 6.114-5.7 8.568 0 10.315 3.899 7.692 15.573-2.975 13.092-3.057 15.381-8.377 15.381-3.572-.109-5.675-1.308-10.995-1.308h-31.38c-4.635.018-7.062-.279-7.336-7.972zM.229 66.198c0-3.707.953-6.9 4.963-9.298 2.701-1.692 2.345-3.708 2.455-7.091.274-9.49.356-12.271.356-19.362 0-3.384.164-6.084-2.701-8.072-2.975-2.097-4.284-4.419-4.284-9.599 0-8.29 2.619-9.188 12.14-9.188h15.635c6.465 0 8.65 1.91 10.398 7.282 1.31 4.2 2.536 7.584 3.412 17.183.603 5.29-.547 8.837 1.474 8.837 1.83 0 1.693-4.638 3.166-11.729.575-3.98 2.318-10.392 2.674-13.689 1.665-7.501 3.33-7.88 10.206-7.88 6.382 0 7.34.11 13.805 0 7.583-.11 10.398 1.61 10.398 10.58 0 3.79-1.036 6.297-3.413 8.18-2.892 2.098-3.33 5.18-3.22 10.393.081 2.891.081 13.771.081 16.881 0 4.88 1.666 5.783 3.057 7.283 2.099 2.098 3.33 3.98 3.33 9.599 0 8.7-6.546 7.99-17.706 7.99-8.294 0-12.386-.493-12.386-9.002 0-3.001.273-5.482 1.665-7.091 1.665-1.911 2.783-3.489 2.974-6.68.165-2.81.165-7.799 0-16.992-.082-4.88.083-7.09-1.665-7.09-1.83 0-1.747 3-2.619 7.989-1.83 10.282-3.654 18.08-4.722 25.769-1.911 12.49-1.747 13.17-10.397 13.17-5.84 0-7.939-2.4-9.084-7.69-.953-4.5-4.284-24.678-5.593-32.371-.707-3.9-.954-6.9-2.701-6.9-1.583 0-1.747 2.29-1.747 6.38 0 6.489.082 11.97 0 19.28 0 2.59.355 3.79 2.18 5.782 3.057 3.411 2.975 5.29 2.975 8.482 0 6.981-4.202 7.392-14.326 7.392-8.244.082-10.78-.93-10.78-8.728zM85.955 66.307c0-4.884.79-6.193 3.057-9.189 2.099-2.809 3.057-5.18 4.804-10.688 2.454-8.1 3.654-11.182 5.758-18.492 1.473-5.098.438-6.083-1.42-7.989-1.582-1.61-3.681-3.41-3.599-8.099.137-8.18 2.975-8.481 20.38-8.481 23.929 0 19.125-.493 23.574 17.182 2.098 8.4 3.928 15.792 6.629 27.461 1.035 4.583 1.665 6.297 3.763 8.591 2.263 2.7 2.701 5.098 2.619 8.4-.273 9.001-1.665 9.49-16.944 9.599-13.368.11-15.8.3-15.8-7.99 0-2.89.165-5.098 2.345-6.98 2.022-1.912 2.455-2.509 1.912-5.181-.712-3.489-.356-4.501-3.413-4.501h-9.685c-2.099 0-2.345.898-3.331 5.098-.707 2.7.274 3.708 1.145 5.4 1.145 1.8 2.099 2.808 2.099 6.598 0 7.501-1.912 7.798-12.825 7.798-8.011-.055-11.068-.657-11.068-8.537zm32.032-28.172c2.701 0 2.975-.899 2.345-3.981-.438-1.91-1.227-5.7-2.103-9.79-.789-3.79-1.036-4.502-2.455-4.502-1.418 0-1.583.899-2.454 4.09-1.145 4.283-1.912 7.502-2.619 10.202-.953 3.11-.52 3.98 2.021 3.98h5.265zM238.91 66.307c0-4.884.789-6.193 3.057-9.189 2.103-2.809 3.057-5.18 4.804-10.688 2.455-8.1 3.654-11.182 5.758-18.492 1.473-5.098.438-6.083-1.419-7.989-1.583-1.61-3.6-3.41-3.6-8.099 0-8.29 3.002-8.208 20.38-8.481 24.094-.41 19.125-.493 23.574 17.182 2.098 8.4 3.928 15.792 6.629 27.461 1.035 4.583 1.665 6.297 3.764 8.591 2.262 2.7 2.7 5.098 2.618 8.4-.273 9.002-1.665 9.49-16.944 9.599-13.368.11-15.799.3-15.799-7.99 0-2.89.164-5.098 2.345-6.98 2.021-1.912 2.454-2.509 1.911-5.181-.707-3.489-.356-4.501-3.412-4.501h-9.686c-2.099 0-2.345.898-3.331 5.098-.707 2.7.274 3.708 1.145 5.4 1.146 1.8 2.099 2.808 2.099 6.598 0 7.501-1.912 7.798-12.825 7.798-8.011-.055-11.068-.657-11.068-8.537zm32.032-28.172c2.701 0 2.975-.898 2.345-3.981-.438-1.91-1.227-5.7-2.103-9.79-.789-3.79-1.036-4.502-2.454-4.502-1.419 0-1.584.899-2.455 4.09-1.145 4.283-1.912 7.502-2.619 10.202-.953 3.11-.52 3.98 2.021 3.98h5.265zM153.131 66.197c0-3.707.953-6.9 4.964-9.298 2.701-1.691 2.345-3.707 2.454-7.09.274-9.49.356-12.272.356-19.363 0-3.41.164-6.083-2.701-8.099-2.974-2.097-4.284-4.391-4.284-9.599 0-8.29 2.619-9.188 12.14-9.188h15.636c6.464 0 8.65 1.91 10.397 7.282 1.31 4.2 2.537 7.584 3.413 17.183.597 5.29.082 8.18 2.098 8.18 1.83 0 .79-3.3 2.537-11.099.602-3.98 2.345-10.392 2.701-13.69 1.665-7.5 3.33-7.879 10.206-7.879 6.383 0 7.341.11 13.805 0 7.588-.11 10.398 1.61 10.398 10.58 0 3.789-1.036 6.297-3.413 8.18-2.892 2.098-3.33 5.18-3.221 10.393.083 2.89.083 13.771.083 16.881 0 4.884 1.665 5.782 3.056 7.283 2.104 2.097 3.331 3.98 3.331 9.599 0 8.7-6.547 7.989-17.707 7.989-8.294 0-12.386-.492-12.386-9.002 0-3 .273-5.48 1.665-7.09 1.665-1.911 2.783-3.494 2.975-6.681.164-2.81.164-7.798 0-16.991-.083-4.88.082-7.091-1.666-7.091-1.829 0-1.747 3-2.618 7.99-1.83 10.282-3.655 18.08-4.722 25.773-1.912 12.49-1.748 13.17-10.398 13.17-5.84 0-7.938-2.4-9.088-7.689-.954-4.5-4.284-24.68-5.594-32.372-.761-3.79-1.035-6.79-2.755-6.79-1.583 0-1.748 2.29-1.748 6.38 0 6.489.083 11.97 0 19.28 0 2.59.356 3.79 2.181 5.782 3.057 3.406 2.975 5.29 2.975 8.482 0 6.981-4.202 7.392-14.326 7.392-8.207.022-10.744-.99-10.744-8.788zM321.586 49.727c0-11.291 5.593-19.663 14.923-19.663 6.547 0 11.078 3.98 11.078 12.873 0 7.09-6.739 6.9-6.739 10.798 0 2.098 2.81 4.145 6.985 3.926 4.695-.246 5.949-4.035 5.949-11.674 0-6.192.438-12.326.082-17.346-.273-3.981-.602-6.68-3.221-7.798-5.237-2.098-6.656-3.899-6.656-10.091 0-6.982 3.764-8.1 19.481-8.1 12.743 0 17.487.603 17.487 7.99 0 5.098-.328 8.646-2.974 9.6-2.345.952-4.12 2.808-4.229 7.391-.083 5.7-.466 15.272-.466 20.074 0 16.088-8.787 27.68-26.685 27.68-14.535 0-25.015-8.587-25.015-25.66zM394.819 70.534c-7.692-5.016-14.435-14.834-15.443-28.988-1.638-22.5 10.667-38.861 31.621-40.444 9.303-.707 16.562 2.262 22.62 7.01 8.486 6.46 13.478 16.416 14.518 30.46 1.665 23.097-11.516 35.834-31.051 37.307-9.089.656-16.343-1.391-22.265-5.345zm34.569-22.144c-.465-10.118-13.778-30.461-24.527-29.918-4.749.246-7.665 4.583-7.177 11.646.794 11.045 15.116 29.016 24.938 27.899 4.558-.547 7.012-3.926 6.766-9.627zM460.576 65.409c0-2.891.274-4.583 2.345-6.68 2.345-2.208 3.983-2.7 3.983-7.283 0-1.91-1.556-3.489-3.737-7.091-.953-1.692-4.777-9.38-6.684-12.873-2.591-4.884-4.092-7.584-7.039-9.9-3.463-2.81-3.901-3.11-3.901-10.393 0-8.7 3.819-8.7 17.597-8.7 12.031 0 15.959.41 15.959 10.283 0 2.508-.68 4.988-2.592 6.68-2.153 1.692-3.029 2.891-2.345 4.884 1.118 2.891 3.304 7.99 3.627 8.7.598 1.501.954 2.509 2.346 2.509 1.473 0 2.075-1.61 3.111-3.489 2.591-3.98 4.339-8.18 4.339-9.982-.082-1.61-.52-2.7-1.392-3.707-1.555-1.5-2.345-3.598-2.345-7.798 0-7.392 1.474-8.4 15.061-8.099 8.923.192 10.315 1.61 10.315 9.6 0 4.801-1.556 5.782-4.585 8.29-3.385 3-3.983 4.2-6.251 8.4-2.673 5.098-4.421 8.7-8.13 15.873-1.829 3-1.473 3.981-1.473 7.2 0 4.09.789 4.282 2.427 5.591 2.345 1.91 3.627 3.708 3.627 9.298 0 7.689-3.385 8.29-16.288 8.29-13.636-.031-17.975.078-17.975-9.603zM506.766 38.736c.164-22.472 12.66-36.462 29.304-36.462 5.922 0 8.403 1.61 10.885 3.598 1.337 1.09 1.72 1.993 2.865 1.993 1.775 0 1.748-4.392 6.251-4.99 5.402-.601 5.566 1.61 8.951 10.498 5.32 14.182 2.947 20.316-3.166 21.816-8.404 2.207-11.433-1.938-16.561-8.947-4.148-5.892-8.678-7.2-13.642-4.884-4.503 2.29-6.195 10.392-2.646 19.17 3.194 7.798 8.13 12.518 15.745 12.518 5.128 0 10.096-1.774 14.435-3.652 4.257-1.993 7.532 1.308 5.484 6.79-3.276 9.297-10.53 18.518-26.658 18.518-19.458-.023-31.434-14.205-31.247-35.965z" fill="#FEEEE2"/><path d="M568.758 65.924c-.082-4.2.328-5.7 3.764-8.591 2.728-2.29 2.482-3.9 2.892-7.392.68-6.084.438-16.882.165-21.465-.247-4.2-1.036-5.7-2.811-6.981-2.728-1.91-4.174-2.891-4.174-8.7 0-8.1 3.002-9.49 10.233-9.49 4.53 0 16.507.788 27.529.492 3.331-.11 5.046-1.309 8.869-1.309 4.175 0 5.895.712 9.823 12.572 3.846 11.889 2.4 16.17-5.977 17.288-4.366.492-6.3-1.61-8.102-6.982-2.291-6.297-3.846-6.352-9.057-6.489-6.382-.164-8.403 1.5-8.65 6.9-.082.706-.082 3.11 0 4.391.082 1.309.762 2.7 1.446 2.7 2.044 0 1.967-1.31 2.729-3.708.68-3 1.61-3.41 4.256-3.899 3.408-.71 5.046 2.7 5.895 6.303 2.208 10.282.844 17.889-4.448 18.49-3.331.411-4.175-.601-5.375-3.3-.926-1.994-1.72-2.892-2.892-2.892-.844 0-1.529 1.801-1.529 6.49 0 7.797 2.783 8.372 9.96 8.59 3.764.11 6.821-1.8 8.787-8.997.926-3.488 2.048-5.7 5.977-5.7 8.376 0 10.069 3.899 7.505 15.573-2.893 13.092-3.002 15.381-8.185 15.381-3.495-.11-5.539-1.309-10.749-1.309h-30.723c-4.512.028-6.912-.273-7.158-7.966zM238.592 149.168c0-4.883.789-6.192 3.057-9.188 2.098-2.809 3.056-5.18 4.804-10.689 2.454-8.099 3.654-11.181 5.757-18.491 1.474-5.098 1.036-6.083-.789-7.99-1.583-1.609-2.345-3.41-2.345-8.098 0-8.29 2.619-8.482 18.5-8.482 24.094 0 19.125-.493 23.574 17.182 2.098 8.4 3.928 15.792 6.629 27.461 1.035 4.583 1.665 6.298 3.764 8.592 2.263 2.699 2.701 5.098 2.618 8.399-.273 8.997-1.665 9.49-16.944 9.599-13.368.11-15.799.301-15.799-7.989 0-2.891.164-5.098 2.345-6.982 2.021-1.91 2.454-2.508 1.911-5.18-.711-3.488-.356-4.501-3.412-4.501h-9.686c-2.099 0-2.345.899-3.331 5.099-.707 2.699.274 3.707 1.146 5.399 1.145 1.801 2.103 2.809 2.103 6.598 0 7.502-1.912 7.798-12.825 7.798-8.02-.055-11.077-.657-11.077-8.537zm32.032-28.172c2.701 0 2.974-.898 2.345-3.981-.438-1.911-1.227-5.7-2.099-9.79-.789-3.79-1.035-4.501-2.454-4.501-1.392 0-1.583.898-2.455 4.09-1.145 4.282-1.911 7.502-2.619 10.201-.953 3.11-.52 3.981 2.022 3.981h5.26zM568.53 148.023c-.083-4.199.328-5.7 3.763-8.591 2.729-2.289 2.482-3.899 2.893-7.392.684-6.083.438-16.881.164-21.464-.246-4.2-1.035-5.7-2.81-6.982-2.728-1.91-4.175-2.891-4.175-8.7 0-8.099 3.002-9.49 10.234-9.49 4.53 0 16.506.789 27.529.493 3.33-.11 5.046-1.31 8.869-1.31 4.174 0 5.894.708 9.823 12.573 3.846 11.893 2.399 16.17-5.977 17.292-4.366.492-6.301-1.61-8.103-6.982-2.29-6.297-3.846-6.352-9.056-6.489-6.383-.164-8.404 1.501-8.65 6.9-.082.707-.082 3.11 0 4.391.082 1.309.766 2.7 1.446 2.7 2.049 0 1.966-1.309 2.728-3.708.685-3 1.611-3.41 4.257-3.898 3.413-.707 5.046 2.699 5.895 6.302 2.208 10.283.844 17.889-4.449 18.491-3.33.41-4.174-.602-5.374-3.302-.926-1.992-1.72-2.891-2.893-2.891-.844 0-1.528 1.801-1.528 6.489 0 7.798 2.783 8.373 9.96 8.592 3.763.109 6.82-1.802 8.787-8.998.926-3.493 2.048-5.7 5.976-5.7 8.377 0 10.069 3.899 7.505 15.573-2.892 13.092-3.002 15.381-8.185 15.381-3.49-.109-5.538-1.308-10.748-1.308h-30.723c-4.512.018-6.912-.283-7.158-7.972zM323.625 146.003c-1.665-8.782-1.392-13.58 6.273-14.669 6.465-1.008 7.692 1.089 10.639 3.981 5.074 5.481 10.206 8.18 14.759 8.18 3.221 0 4.805-1.089 4.805-3.301 0-4.282-2.455-5.591-11.789-7.392-15.115-2.809-25.13-8.29-25.13-24.273 0-15.08 9.96-23.563 22.972-23.563 6.113 0 9.247 1.911 11.269 3.302 1.829 1.39 2.18 1.91 3.056 1.91 2.099 0 .603-4.692 5.238-5.29 4.366-.601 5.32.708 8.458 7.69 3.221 6.79 4.887 13.99-.597 16.388-5.402 2.289-8.568 1.993-12.496-2.207-4.531-5.18-9.084-7.392-14.76-7.392-3.928.301-5.073 1.993-5.073 4.282 0 3.001 2.564 4.282 12.14 6.138 15.8 3.028 23.574 7.743 23.574 24.242 0 14.482-8.568 23.37-21.826 23.37-5.949 0-9.604-1.61-13.614-4.802-1.583-1.308-2.099-1.992-3.331-1.91-2.263.41.083 5.782-6.113 6.192-5.644.415-6.515-2.886-8.454-10.876zM377.783 148.297c0-4.884.817-6.193 3.249-9.189 2.208-2.781 3.248-5.18 5.073-10.689 2.591-8.098 3.873-11.181 6.113-18.491 1.584-5.098 1.118-6.083-.844-7.989-1.665-1.61-3.736-3.411-3.736-8.099 0-8.29 2.783-8.372 20.845-8.482 25.513-.164 20.248-.492 24.965 17.183 2.208 8.4 4.147 15.791 7.012 27.461 1.118 4.61 1.748 6.302 3.983 8.591 2.4 2.7 3.495 5.098 3.408 8.4-.273 9.001-2.372 9.489-18.555 9.599-14.161.109-16.725.301-16.725-7.99 0-2.891.191-5.098 2.482-6.981 2.13-1.911 2.591-2.508 2.048-5.208-.734-3.488-.383-4.501-3.599-4.501h-10.288c-2.209 0-2.482.899-3.523 5.099-.734 2.699.274 3.707 1.2 5.399 1.2 1.801 2.209 2.809 2.209 6.598 0 7.502-2.049 7.798-13.587 7.798-8.509-.005-11.73-.602-11.73-8.509zm33.917-28.145c2.865 0 3.138-.898 2.509-4.008-.466-1.911-1.282-5.701-2.208-9.791-.844-3.789-1.118-4.501-2.592-4.501-1.473 0-1.665.899-2.591 4.091-1.2 4.282-2.049 7.501-2.783 10.173-1.008 3.11-.548 4.009 2.13 4.009h5.539v.027h-.004zM447.99 129.04l.356-18.191c.082-3.488-.794-5.399-2.537-6.68-2.263-1.801-3.221-4.693-3.221-8.29 0-8.893 4.01-10.284 17.542-10.393 14.052-.11 17.109.602 17.109 9.08 0 3.492-.954 6-3.655 8.782-2.454 2.59-2.021 5.098-2.021 8.29v17.889c0 4.611 2.537 7.502 6.821 7.502 4.722 0 7.423-1.692 7.423-7.688V108.56c0-2.59-.598-4.501-1.83-6.001-1.911-2.207-3.139-3.192-3.139-7.392 0-9.189 1.912-9.681 15.718-9.681 9.165 0 10.913 1.5 10.913 9.49 0 4.801-1.666 6.192-3.413 8.18-1.747 1.993-2.021 3.79-2.021 7.584v16.69c0 20.37-9.248 30.27-25.677 30.27-18.683.004-28.642-8.696-28.368-28.66z" fill="#FEEEE2"/><path d="M506.022 121.132c.164-22.472 13.098-36.462 29.523-36.462 5.839 0 8.923 1.61 11.351 3.598 1.309 1.09 1.911 1.5 3.056 1.5 1.748 0 1.474-3.899 5.95-4.5 5.319-.603 5.511 1.609 8.814 10.497 5.238 14.182 2.701 19.581-3.331 21.081-8.294 2.207-11.077-1.199-16.15-8.181-4.093-5.891-9.166-7.2-14.079-4.879-4.449 2.289-6.114 10.388-2.619 19.171 3.139 7.797 8.02 11.888 15.525 11.888 5.074 0 9.987-1.145 14.244-3.028 4.202-1.993 7.423 1.309 5.402 6.79-3.221 9.298-10.421 18.518-26.302 18.518-19.162-.022-31.576-14.204-31.384-35.993z" fill="#FEEEE2"/></svg>