<svg width="1271" height="75" fill="none" xmlns="http://www.w3.org/2000/svg"><path d="M0 65.2c0-3.707.954-6.9 4.964-9.298 2.7-1.692 2.345-3.707 2.454-7.09.274-9.49.356-12.272.356-19.363 0-3.384.164-6.083-2.7-8.071-2.975-2.098-4.285-4.42-4.285-9.6 0-8.29 2.62-9.188 12.14-9.188h15.636c6.464 0 8.65 1.91 10.397 7.283 1.31 4.2 2.537 7.583 3.413 17.182.602 5.29-.548 8.837 1.474 8.837 1.829 0 1.692-4.637 3.166-11.728.575-3.981 2.317-10.393 2.673-13.69 1.665-7.5 3.33-7.88 10.206-7.88 6.383 0 7.341.11 13.806 0 7.582-.109 10.397 1.61 10.397 10.58 0 3.79-1.035 6.298-3.412 8.18-2.893 2.099-3.33 5.181-3.221 10.393.082 2.892.082 13.772.082 16.882 0 4.88 1.665 5.782 3.057 7.282 2.098 2.098 3.33 3.981 3.33 9.6 0 8.7-6.547 7.989-17.706 7.989-8.295 0-12.387-.493-12.387-9.002 0-3 .274-5.481 1.665-7.091 1.665-1.91 2.783-3.488 2.975-6.68.164-2.81.164-7.798 0-16.991-.082-4.88.082-7.091-1.665-7.091-1.83 0-1.748 3-2.62 7.989-1.829 10.283-3.654 18.08-4.721 25.769-1.912 12.49-1.747 13.17-10.398 13.17-5.84 0-7.938-2.399-9.083-7.689-.954-4.5-4.284-24.679-5.594-32.372-.707-3.899-.953-6.9-2.7-6.9-1.584 0-1.748 2.29-1.748 6.38 0 6.49.082 11.97 0 19.28 0 2.59.356 3.79 2.18 5.783 3.058 3.41 2.976 5.29 2.976 8.481 0 6.982-4.202 7.392-14.326 7.392C2.537 74.01 0 72.998 0 65.2zM85.726 65.31c0-4.884.79-6.193 3.057-9.19 2.099-2.808 3.057-5.18 4.804-10.688 2.454-8.099 3.654-11.181 5.758-18.491 1.473-5.098.438-6.083-1.42-7.99-1.582-1.61-3.681-3.41-3.599-8.098.137-8.181 2.975-8.482 20.38-8.482 23.929 0 19.125-.492 23.574 17.182 2.098 8.4 3.928 15.792 6.629 27.461 1.035 4.583 1.665 6.298 3.763 8.592 2.263 2.7 2.701 5.098 2.619 8.4-.273 9.001-1.665 9.489-16.944 9.598-13.368.11-15.8.301-15.8-7.989 0-2.891.165-5.098 2.345-6.981 2.022-1.911 2.455-2.508 1.912-5.18-.712-3.49-.356-4.502-3.413-4.502h-9.685c-2.099 0-2.345.899-3.331 5.099-.707 2.7.274 3.707 1.145 5.399 1.145 1.801 2.099 2.809 2.099 6.598 0 7.502-1.912 7.798-12.825 7.798-8.011-.055-11.068-.657-11.068-8.537zm32.032-28.173c2.701 0 2.975-.898 2.345-3.98-.438-1.911-1.227-5.7-2.103-9.791-.789-3.79-1.036-4.501-2.455-4.501-1.418 0-1.583.898-2.454 4.09-1.145 4.282-1.912 7.502-2.619 10.201-.953 3.11-.52 3.981 2.021 3.981h5.265zM238.683 65.31c0-4.884.789-6.193 3.056-9.19 2.104-2.808 3.057-5.18 4.805-10.688 2.454-8.099 3.654-11.181 5.757-18.491 1.474-5.098.438-6.083-1.419-7.99-1.583-1.61-3.599-3.41-3.599-8.098 0-8.29 3.002-8.208 20.38-8.482 24.093-.41 19.125-.492 23.573 17.183 2.099 8.4 3.928 15.791 6.629 27.46 1.036 4.583 1.665 6.298 3.764 8.592 2.263 2.7 2.701 5.098 2.619 8.4-.274 9.001-1.665 9.489-16.945 9.598-13.367.11-15.799.301-15.799-7.989 0-2.891.164-5.098 2.345-6.981 2.021-1.911 2.455-2.508 1.912-5.18-.708-3.49-.356-4.502-3.413-4.502h-9.686c-2.098 0-2.345.899-3.33 5.099-.707 2.7.273 3.707 1.145 5.399 1.145 1.801 2.099 2.809 2.099 6.598 0 7.502-1.912 7.798-12.825 7.798-8.012-.055-11.068-.657-11.068-8.536zm32.032-28.173c2.701 0 2.974-.898 2.345-3.98-.438-1.911-1.228-5.7-2.103-9.791-.79-3.79-1.036-4.501-2.455-4.501s-1.583.898-2.455 4.09c-1.145 4.282-1.911 7.502-2.618 10.201-.954 3.11-.52 3.981 2.021 3.981h5.265zM152.902 65.2c0-3.708.953-6.9 4.964-9.298 2.701-1.692 2.345-3.708 2.454-7.091.274-9.49.356-12.271.356-19.362 0-3.411.164-6.084-2.701-8.1-2.974-2.097-4.284-4.39-4.284-9.598 0-8.29 2.619-9.189 12.14-9.189h15.636c6.464 0 8.65 1.91 10.397 7.283 1.31 4.2 2.537 7.583 3.413 17.182.597 5.29.082 8.181 2.098 8.181 1.83 0 .79-3.301 2.537-11.1.602-3.98 2.345-10.392 2.701-13.689 1.665-7.501 3.33-7.88 10.206-7.88 6.383 0 7.341.11 13.805 0 7.588-.109 10.398 1.61 10.398 10.58 0 3.79-1.036 6.297-3.413 8.18-2.892 2.098-3.33 5.181-3.221 10.393.083 2.891.083 13.772.083 16.882 0 4.884 1.665 5.782 3.056 7.282 2.104 2.098 3.331 3.981 3.331 9.6 0 8.7-6.547 7.989-17.707 7.989-8.294 0-12.386-.493-12.386-9.002 0-3 .273-5.481 1.665-7.091 1.665-1.91 2.783-3.493 2.975-6.68.164-2.81.164-7.798 0-16.992-.083-4.879.082-7.09-1.666-7.09-1.829 0-1.747 3-2.618 7.989-1.83 10.283-3.655 18.08-4.722 25.773-1.912 12.49-1.748 13.17-10.398 13.17-5.84 0-7.938-2.399-9.088-7.688-.954-4.501-4.284-24.68-5.594-32.373-.761-3.789-1.035-6.79-2.755-6.79-1.583 0-1.748 2.29-1.748 6.38 0 6.49.083 11.97 0 19.28 0 2.59.356 3.79 2.181 5.782 3.057 3.407 2.975 5.29 2.975 8.482 0 6.982-4.202 7.392-14.326 7.392-8.207.023-10.744-.99-10.744-8.787zM321.356 48.73c0-11.292 5.594-19.664 14.924-19.664 6.547 0 11.077 3.981 11.077 12.873 0 7.091-6.738 6.9-6.738 10.798 0 2.098 2.81 4.146 6.985 3.927 4.694-.247 5.949-4.036 5.949-11.674 0-6.193.438-12.326.082-17.347-.274-3.98-.602-6.68-3.221-7.797-5.238-2.098-6.657-3.9-6.657-10.092 0-6.981 3.764-8.099 19.482-8.099 12.742 0 17.487.602 17.487 7.99 0 5.098-.329 8.646-2.975 9.599-2.345.953-4.119 2.809-4.229 7.392-.082 5.7-.465 15.271-.465 20.073 0 16.088-8.787 27.68-26.685 27.68-14.536 0-25.016-8.587-25.016-25.66zM394.591 69.537c-7.692-5.016-14.435-14.834-15.443-28.989-1.638-22.5 10.666-38.861 31.621-40.443 9.303-.707 16.561 2.261 22.62 7.009 8.486 6.461 13.477 16.416 14.517 30.461 1.666 23.097-11.515 35.833-31.051 37.306-9.088.657-16.342-1.39-22.264-5.344zm34.569-22.144c-.466-10.119-13.778-30.462-24.527-29.919-4.75.246-7.665 4.583-7.177 11.647.794 11.044 15.115 29.015 24.938 27.898 4.558-.547 7.012-3.926 6.766-9.626zM460.348 64.411c0-2.89.274-4.583 2.345-6.68 2.345-2.207 3.983-2.7 3.983-7.283 0-1.91-1.556-3.488-3.737-7.09-.953-1.692-4.777-9.38-6.684-12.874-2.591-4.884-4.092-7.583-7.039-9.9-3.463-2.809-3.901-3.11-3.901-10.392 0-8.701 3.819-8.701 17.597-8.701 12.031 0 15.959.41 15.959 10.283 0 2.508-.68 4.989-2.592 6.68-2.153 1.692-3.029 2.892-2.345 4.884 1.118 2.892 3.304 7.99 3.627 8.701.598 1.5.954 2.508 2.346 2.508 1.473 0 2.075-1.61 3.111-3.488 2.591-3.981 4.339-8.181 4.339-9.982-.082-1.61-.52-2.7-1.392-3.708-1.555-1.5-2.345-3.598-2.345-7.797 0-7.392 1.474-8.4 15.06-8.1 8.924.192 10.316 1.61 10.316 9.6 0 4.802-1.556 5.782-4.585 8.29-3.385 3-3.983 4.2-6.251 8.4-2.673 5.098-4.421 8.7-8.13 15.873-1.829 3.001-1.473 3.981-1.473 7.2 0 4.091.789 4.283 2.427 5.592 2.345 1.91 3.627 3.707 3.627 9.298 0 7.688-3.385 8.29-16.288 8.29-13.636-.032-17.975.077-17.975-9.604zM506.537 37.739c.164-22.472 12.66-36.463 29.303-36.463 5.922 0 8.404 1.61 10.886 3.598 1.337 1.09 1.72 1.993 2.865 1.993 1.775 0 1.748-4.391 6.251-4.989 5.401-.602 5.566 1.61 8.951 10.498 5.32 14.182 2.947 20.315-3.166 21.815-8.404 2.207-11.434-1.938-16.562-8.947-4.147-5.891-8.677-7.2-13.641-4.884-4.503 2.29-6.196 10.393-2.646 19.171 3.194 7.798 8.13 12.517 15.745 12.517 5.128 0 10.096-1.773 14.435-3.652 4.256-1.993 7.532 1.309 5.484 6.79-3.276 9.298-10.53 18.518-26.658 18.518-19.458-.022-31.434-14.204-31.247-35.965z" fill="#FFEFE3"/><path d="M568.529 64.927c-.082-4.2.329-5.7 3.764-8.591 2.729-2.29 2.482-3.9 2.893-7.392.68-6.084.438-16.882.164-21.465-.246-4.2-1.035-5.7-2.81-6.981-2.728-1.911-4.175-2.891-4.175-8.701 0-8.099 3.002-9.49 10.233-9.49 4.531 0 16.507.79 27.53.493 3.33-.11 5.046-1.309 8.869-1.309 4.174 0 5.894.712 9.822 12.572 3.846 11.889 2.4 16.17-5.976 17.288-4.366.492-6.301-1.61-8.103-6.982-2.29-6.297-3.846-6.352-9.056-6.489-6.383-.164-8.404 1.5-8.65 6.9-.082.706-.082 3.11 0 4.391.082 1.309.762 2.7 1.446 2.7 2.044 0 1.966-1.31 2.728-3.708.68-3 1.611-3.41 4.257-3.899 3.408-.711 5.046 2.7 5.894 6.302 2.209 10.284.844 17.89-4.448 18.492-3.33.41-4.174-.602-5.374-3.302-.926-1.993-1.72-2.891-2.893-2.891-.844 0-1.528 1.801-1.528 6.489 0 7.798 2.783 8.372 9.959 8.591 3.764.11 6.821-1.801 8.787-8.997.927-3.488 2.049-5.7 5.977-5.7 8.376 0 10.069 3.899 7.505 15.573-2.892 13.092-3.002 15.381-8.185 15.381-3.494-.11-5.538-1.309-10.749-1.309h-30.722c-4.512.028-6.912-.273-7.159-7.966zM644.579 64.252c0-3.981 1.063-6.302 3.682-8.4 2.619-2.102 3.572-3.411 3.572-7.392V29.887c0-3.598-.707-6.001-2.975-7.689-1.911-1.308-4.475-3-4.475-9.083 0-8.29 1.857-10.201 11.351-10.201 3.057 0 17.87-.192 24.066-.192 17.816 0 25.485 6.982 25.485 22.883-.082 14.67-7.856 25.281-24.965 24.98-5.675-.11-8.896.191-8.896 2.29 0 .601.602 1.089 3.33 3 3.331 2.207 3.846 4.989 3.846 8.4 0 7.88-1.911 10.2-17.624 10.091-14.622-.132-16.397-2.125-16.397-10.114zm40.682-36.928c0-5.481-5.237-8.318-11.761-8.017-4.285.192-3.573.493-3.573 8.099 0 6.083.981 7.2 7.802 6.982 4.256-.11 7.532-2.481 7.532-7.064zM767.579 64.252c0-3.981 1.063-6.302 3.682-8.4 2.619-2.102 3.572-3.411 3.572-7.392V29.887c0-3.598-.711-6.001-2.974-7.689-1.912-1.308-4.476-3-4.476-9.083 0-8.29 1.857-10.201 11.351-10.201 3.057 0 17.871-.192 24.066-.192 17.816 0 25.486 6.982 25.486 22.883-.083 14.67-7.857 25.281-24.965 24.98-5.676-.11-8.897.191-8.897 2.29 0 .601.602 1.089 3.33 3 3.331 2.207 3.847 4.989 3.847 8.4 0 7.88-1.912 10.2-17.625 10.091-14.649-.132-16.397-2.125-16.397-10.114zm40.683-36.928c0-5.481-5.238-8.318-11.762-8.017-4.284.192-3.572.493-3.572 8.099 0 6.083.98 7.2 7.801 6.982 4.257-.11 7.533-2.481 7.533-7.064zM830.006 64.252c0-3.981 1.063-6.302 3.681-8.4 2.619-2.102 3.573-3.411 3.573-7.392V29.887c0-3.598-.708-6.001-2.975-7.689-1.912-1.308-4.476-3-4.476-9.083 0-8.29 1.857-10.201 11.351-10.201 3.057 0 17.871-.192 24.067-.192 17.816 0 25.485 6.982 25.485 22.883-.082 14.67-7.856 25.281-24.965 24.98-5.676-.11-8.897.191-8.897 2.29 0 .601.603 1.089 3.331 3 3.33 2.207 3.846 4.989 3.846 8.4 0 7.88-1.912 10.2-17.624 10.091-14.623-.132-16.397-2.125-16.397-10.114zm40.682-36.928c0-5.481-5.238-8.318-11.762-8.017-4.284.192-3.572.493-3.572 8.099 0 6.083.981 7.2 7.801 6.982 4.257-.11 7.533-2.481 7.533-7.064zM706.325 64.93c-.082-4.2.356-5.7 3.846-8.59 2.783-2.29 2.537-3.9 2.975-7.393.707-6.083.438-16.881.164-21.464-.273-4.2-1.035-5.7-2.892-6.981-2.783-1.911-4.284-2.892-4.284-8.701 0-8.099 3.057-9.49 10.475-9.49 4.64 0 16.89.79 28.159.493 3.408-.11 5.155-1.309 9.083-1.309 4.284 0 6.032.711 10.042 12.572 3.928 11.889 2.454 16.17-6.114 17.292-4.448.493-6.464-1.61-8.294-6.981-2.345-6.298-3.928-6.352-9.248-6.49-6.519-.164-8.595 1.501-8.869 6.9-.082.707-.082 3.11 0 4.392.082 1.308.789 2.7 1.474 2.7 2.098 0 2.021-1.31 2.783-3.708.711-3 1.665-3.411 4.366-3.9 3.495-.706 5.155 2.7 6.031 6.303 2.263 10.283.872 17.89-4.53 18.491-3.408.41-4.284-.602-5.511-3.301-.954-1.993-1.748-2.892-2.975-2.892-.871 0-1.583 1.802-1.583 6.49 0 7.797 2.865 8.372 10.178 8.59 3.846.11 6.985-1.8 9.006-8.996.954-3.489 2.099-5.7 6.114-5.7 8.568 0 10.315 3.898 7.692 15.572-2.975 13.092-3.057 15.381-8.376 15.381-3.573-.109-5.676-1.308-10.996-1.308h-31.379c-4.636.018-7.063-.278-7.337-7.971z" fill="#FFEFE3"/><path d="M882.746 65.451c0-4.884.789-6.192 3.057-9.188 2.099-2.81 3.057-5.18 4.804-10.69 2.454-8.098 3.654-11.18 5.758-18.49 1.473-5.099 1.035-6.084-.79-7.99-1.583-1.61-2.345-3.41-2.345-8.099 0-8.29 2.619-8.481 18.501-8.481 24.093 0 19.125-.493 23.573 17.182 2.099 8.4 3.928 15.792 6.629 27.461 1.036 4.583 1.665 6.297 3.764 8.591 2.263 2.7 2.701 5.098 2.619 8.4-.274 8.997-1.666 9.49-16.945 9.599-13.367.11-15.799.3-15.799-7.99 0-2.89.164-5.098 2.345-6.98 2.021-1.912 2.455-2.509 1.912-5.181-.712-3.489-.356-4.501-3.413-4.501h-9.686c-2.098 0-2.345.898-3.33 5.098-.707 2.7.273 3.708 1.145 5.4 1.145 1.8 2.103 2.808 2.103 6.598 0 7.501-1.912 7.798-12.825 7.798-8.02-.055-11.077-.657-11.077-8.537zm32.032-28.172c2.701 0 2.975-.899 2.345-3.981-.438-1.91-1.227-5.7-2.098-9.79-.79-3.79-1.036-4.502-2.455-4.502-1.392 0-1.583.899-2.455 4.09-1.145 4.283-1.911 7.502-2.618 10.202-.954 3.11-.52 3.98 2.021 3.98h5.26zM1212.68 64.306c-.08-4.2.33-5.7 3.77-8.591 2.73-2.29 2.48-3.899 2.89-7.392.69-6.083.44-16.881.16-21.464-.24-4.2-1.03-5.7-2.81-6.982-2.72-1.91-4.17-2.891-4.17-8.7 0-8.1 3-9.49 10.23-9.49 4.53 0 16.51.789 27.53.492 3.33-.11 5.05-1.308 8.87-1.308 4.18 0 5.9.706 9.82 12.572 3.85 11.893 2.4 16.17-5.97 17.292-4.37.492-6.3-1.61-8.1-6.982-2.3-6.297-3.85-6.352-9.06-6.489-6.38-.164-8.41 1.5-8.65 6.9-.08.706-.08 3.11 0 4.391.08 1.309.77 2.7 1.44 2.7 2.05 0 1.97-1.31 2.73-3.708.69-3 1.61-3.41 4.26-3.899 3.41-.706 5.05 2.7 5.89 6.302 2.21 10.283.85 17.89-4.44 18.492-3.33.41-4.18-.602-5.38-3.302-.92-1.993-1.72-2.891-2.89-2.891-.84 0-1.53 1.801-1.53 6.489 0 7.798 2.78 8.372 9.96 8.591 3.76.11 6.82-1.801 8.79-8.997.92-3.493 2.05-5.7 5.97-5.7 8.38 0 10.07 3.899 7.51 15.573-2.89 13.092-3 15.381-8.19 15.381-3.49-.11-5.53-1.309-10.74-1.309h-30.73c-4.51.019-6.91-.282-7.16-7.97zM967.779 62.286c-1.666-8.783-1.392-13.58 6.273-14.67 6.465-1.008 7.692 1.09 10.639 3.981 5.074 5.481 10.206 8.181 14.759 8.181 3.22 0 4.8-1.09 4.8-3.301 0-4.282-2.45-5.591-11.785-7.392-15.115-2.81-25.129-8.29-25.129-24.274 0-15.08 9.96-23.562 22.971-23.562 6.114 0 9.248 1.91 11.273 3.302 1.83 1.39 2.18 1.91 3.05 1.91 2.1 0 .61-4.692 5.24-5.29 4.37-.601 5.32.707 8.46 7.689 3.22 6.79 4.89 13.99-.6 16.389-5.4 2.29-8.57 1.993-12.49-2.207-4.54-5.18-9.088-7.392-14.764-7.392-3.928.3-5.073 1.993-5.073 4.282 0 3 2.564 4.282 12.14 6.138 15.797 3.028 23.577 7.743 23.577 24.241 0 14.483-8.57 23.37-21.829 23.37-5.95 0-9.604-1.609-13.614-4.8-1.583-1.31-2.099-1.994-3.331-1.912-2.263.41.082 5.783-6.113 6.193-5.644.415-6.515-2.887-8.454-10.876zM1021.94 64.58c0-4.884.81-6.192 3.25-9.188 2.2-2.782 3.24-5.18 5.07-10.69 2.59-8.098 3.87-11.18 6.11-18.49 1.59-5.099 1.12-6.084-.84-7.99-1.67-1.61-3.74-3.41-3.74-8.099 0-8.29 2.79-8.372 20.85-8.481 25.51-.165 20.25-.493 24.96 17.182 2.21 8.4 4.15 15.792 7.02 27.461 1.11 4.61 1.74 6.302 3.98 8.591 2.4 2.7 3.49 5.098 3.41 8.4-.28 9.002-2.38 9.49-18.56 9.599-14.16.11-16.72.3-16.72-7.99 0-2.89.19-5.098 2.48-6.98 2.13-1.912 2.59-2.509 2.05-5.209-.74-3.488-.39-4.5-3.6-4.5h-10.29c-2.21 0-2.48.898-3.52 5.098-.74 2.7.27 3.707 1.2 5.399 1.2 1.801 2.2 2.809 2.2 6.599 0 7.5-2.04 7.797-13.58 7.797-8.51-.004-11.73-.602-11.73-8.509zm33.91-28.145c2.87 0 3.14-.898 2.51-4.008-.46-1.91-1.28-5.7-2.2-9.79-.85-3.79-1.12-4.502-2.6-4.502-1.47 0-1.66.899-2.59 4.09-1.2 4.283-2.05 7.502-2.78 10.175-1.01 3.11-.55 4.008 2.13 4.008h5.54v.027h-.01zM1092.14 45.323l.36-18.19c.08-3.489-.79-5.4-2.54-6.681-2.26-1.801-3.22-4.692-3.22-8.29 0-8.893 4.01-10.283 17.54-10.393 14.06-.11 17.11.602 17.11 9.08 0 3.492-.95 6-3.65 8.782-2.46 2.59-2.02 5.098-2.02 8.29v17.89c0 4.61 2.53 7.501 6.82 7.501 4.72 0 7.42-1.692 7.42-7.688v-20.78c0-2.59-.6-4.502-1.83-6.002-1.91-2.207-3.14-3.192-3.14-7.392 0-9.188 1.91-9.68 15.72-9.68 9.16 0 10.91 1.5 10.91 9.489 0 4.802-1.66 6.192-3.41 8.18-1.75 1.993-2.02 3.79-2.02 7.584v16.69c0 20.37-9.25 30.27-25.68 30.27-18.68.005-28.64-8.696-28.37-28.66z" fill="#FFEFE3"/><path d="M1150.18 37.415c.16-22.472 13.09-36.462 29.52-36.462 5.84 0 8.92 1.61 11.35 3.598 1.31 1.09 1.91 1.5 3.06 1.5 1.74 0 1.47-3.9 5.95-4.501 5.32-.602 5.51 1.61 8.81 10.497 5.24 14.182 2.7 19.581-3.33 21.082-8.3 2.207-11.08-1.2-16.15-8.181-4.09-5.892-9.17-7.2-14.08-4.88-4.45 2.29-6.11 10.388-2.62 19.171 3.14 7.798 8.02 11.888 15.53 11.888 5.07 0 9.98-1.144 14.24-3.028 4.2-1.992 7.42 1.31 5.4 6.79-3.22 9.299-10.42 18.52-26.3 18.52-19.16-.024-31.58-14.206-31.38-35.994z" fill="#FFEFE3"/></svg>