<svg xmlns="http://www.w3.org/2000/svg" viewBox="0 0 400 420" width="400" height="420" preserveAspectRatio="xMidYMid meet" style="width: 100%; height: 100%; transform: translate3d(0px, 0px, 0px);"><defs><clipPath id="__lottie_element_1042"><rect width="400" height="420" x="0" y="0"></rect></clipPath><clipPath id="__lottie_element_1044"><path d="M0,0 L519,0 L519,519 L0,519z"></path></clipPath><clipPath id="__lottie_element_1048"><path d="M0,0 L589,0 L589,589 L0,589z"></path></clipPath></defs><g clip-path="url(#__lottie_element_1042)"><g clip-path="url(#__lottie_element_1044)" transform="matrix(0.7731783390045166,0.001592532848007977,-0.001592532848007977,0.7731783390045166,-19.6854248046875,36.21563720703125)" opacity="1" style="display: block;"><g transform="matrix(1,0,0,1,259.49798583984375,259.49798583984375)" opacity="1" style="display: block;"><g opacity="1" transform="matrix(2,0,0,2,0,0)"></g></g><g transform="matrix(0.9987587928771973,0.04980853199958801,-0.04980853199958801,0.9987587928771973,334.7860107421875,265.5989990234375)" opacity="1" style="display: block;"><g opacity="1" transform="matrix(1.7267030477523804,1.009205937385559,-1.009205937385559,1.7267030477523804,0,0)"><path fill="rgb(134,137,155)" fill-opacity="1" d=" M0,-95.47599792480469 C0,-95.47599792480469 -8.17300033569336,-91.51399993896484 -8.225000381469727,-86.62899780273438 C-9.180000305175781,-91.24800109863281 -17.68600082397461,-90.8030014038086 -17.68600082397461,-90.8030014038086 C-17.68600082397461,-90.8030014038086 -24.72599983215332,-82.8219985961914 -23.8700008392334,-78.14900207519531 C-25.634000778198242,-82.05000305175781 -33.64099884033203,-77.24099731445312 -33.64099884033203,-77.24099731445312 C-33.64099884033203,-77.24099731445312 -38.858001708984375,-66.02200317382812 -37.17900085449219,-62.01900100708008 C-39.577999114990234,-64.81999969482422 -46.303001403808594,-56.11899948120117 -46.303001403808594,-56.11899948120117 C-46.303001403808594,-56.11899948120117 -49.18600082397461,-42.7599983215332 -46.84700012207031,-39.819000244140625 C-49.64899826049805,-41.244998931884766 -54.43299865722656,-29.503000259399414 -54.43299865722656,-29.503000259399414 C-54.43299865722656,-29.503000259399414 -54.70000076293945,-15.312000274658203 -51.930999755859375,-13.720000267028809 C-54.85900115966797,-13.633999824523926 -57.23400115966797,0 -57.23400115966797,0 C-57.23400115966797,0 -54.85900115966797,13.633000373840332 -51.930999755859375,13.720999717712402 C-54.70000076293945,15.312999725341797 -54.43299865722656,29.503999710083008 -54.43299865722656,29.503999710083008 C-54.43299865722656,29.503999710083008 -49.64899826049805,41.24599838256836 -46.84700012207031,39.819000244140625 C-49.18600082397461,42.76100158691406 -46.303001403808594,56.119998931884766 -46.303001403808594,56.119998931884766 C-46.303001403808594,56.119998931884766 -39.577999114990234,64.8219985961914 -37.17900085449219,62.020999908447266 C-38.858001708984375,66.02400207519531 -33.64099884033203,77.24199676513672 -33.64099884033203,77.24199676513672 C-33.64099884033203,77.24199676513672 -25.634000778198242,82.0510025024414 -23.8700008392334,78.1510009765625 C-24.72599983215332,82.822998046875 -17.68600082397461,90.8030014038086 -17.68600082397461,90.8030014038086 C-17.68600082397461,90.8030014038086 -9.180000305175781,91.2490005493164 -8.225000381469727,86.62999725341797 C-8.17300033569336,91.51499938964844 -4.505000114440918,95.47599792480469 0,95.47599792480469 C4.50600004196167,95.47599792480469 8.17300033569336,91.51499938964844 8.22599983215332,86.62999725341797 C9.180000305175781,91.2490005493164 17.68600082397461,90.8030014038086 17.68600082397461,90.8030014038086 C17.68600082397461,90.8030014038086 24.726999282836914,82.822998046875 23.871000289916992,78.1510009765625 C25.634000778198242,82.0510025024414 33.64099884033203,77.24199676513672 33.64099884033203,77.24199676513672 C33.64099884033203,77.24199676513672 38.858001708984375,66.02400207519531 37.17900085449219,62.020999908447266 C39.577999114990234,64.8219985961914 46.30400085449219,56.119998931884766 46.30400085449219,56.119998931884766 C46.30400085449219,56.119998931884766 49.1870002746582,42.76100158691406 46.847999572753906,39.819000244140625 C49.64899826049805,41.24599838256836 54.433998107910156,29.503999710083008 54.433998107910156,29.503999710083008 C54.433998107910156,29.503999710083008 54.70000076293945,15.312999725341797 51.93199920654297,13.720999717712402 C54.86000061035156,13.633000373840332 57.23400115966797,0 57.23400115966797,0 C57.23400115966797,0 54.86000061035156,-13.633999824523926 51.93199920654297,-13.720000267028809 C54.70000076293945,-15.312000274658203 54.433998107910156,-29.503000259399414 54.433998107910156,-29.503000259399414 C54.433998107910156,-29.503000259399414 49.64899826049805,-41.244998931884766 46.847999572753906,-39.819000244140625 C49.1870002746582,-42.7599983215332 46.30400085449219,-56.11899948120117 46.30400085449219,-56.11899948120117 C46.30400085449219,-56.11899948120117 39.577999114990234,-64.81999969482422 37.17900085449219,-62.01900100708008 C38.858001708984375,-66.02200317382812 33.64099884033203,-77.24099731445312 33.64099884033203,-77.24099731445312 C33.64099884033203,-77.24099731445312 25.634000778198242,-82.05000305175781 23.871000289916992,-78.14900207519531 C24.726999282836914,-82.8219985961914 17.68600082397461,-90.8030014038086 17.68600082397461,-90.8030014038086 C17.68600082397461,-90.8030014038086 9.180000305175781,-91.24800109863281 8.22599983215332,-86.62899780273438 C8.17300033569336,-91.51399993896484 0,-95.47599792480469 0,-95.47599792480469z"></path></g></g><g transform="matrix(-0.6205457448959351,0.7841702103614807,0.7841702103614807,0.6205457448959351,238.73098754882812,434.7960205078125)" opacity="1" style="display: block;"><g opacity="1" transform="matrix(0.947284996509552,1.7614344358444214,-1.7614344358444214,0.947284996509552,0,0)"><path fill="rgb(134,137,155)" fill-opacity="1" d=" M-17.559999465942383,14.659000396728516 C-18.51799964904785,2.7690000534057617 5.3460001945495605,-19.9060001373291 16.02400016784668,-20.85300064086914 C17.729999542236328,-21.0049991607666 18.243999481201172,-15.791999816894531 16.531999588012695,-15.739999771118164 C5.349999904632568,-15.39900016784668 -13.906999588012695,2.306999921798706 -11.35099983215332,14.991000175476074 C-10.92300033569336,17.117000579833984 -13.12600040435791,20.91200065612793 -14.15999984741211,20.856000900268555 C-15.194999694824219,20.801000595092773 -17.371000289916992,17.006999969482422 -17.559999465942383,14.659000396728516z"></path></g></g><g transform="matrix(1.3084546327590942,0.047041308134794235,-0.03278017416596413,0.9117809534072876,332.3869934082031,263.47900390625)" opacity="1" style="display: block;"><g opacity="1" transform="matrix(1.206220030784607,0,0,2.2674200534820557,0,0)"><path fill="rgb(235,235,235)" fill-opacity="1" d=" M57.715999603271484,-69.41400146484375 C-6.625,-24.5 -47.25899887084961,49.84400177001953 -57.7140007019043,69.41000366210938 C-57.7760009765625,69.5270004272461 -56.41400146484375,67.09100341796875 -53.395999908447266,63.051998138427734 C-36.347999572753906,40.23099899291992 23.73200035095215,-39.474998474121094 57.715999603271484,-69.41400146484375z"></path></g></g></g><g clip-path="url(#__lottie_element_1048)" transform="matrix(0.7268228530883789,-0.2636965811252594,0.2636965811252594,0.7268228530883789,-207.172119140625,52.120391845703125)" opacity="1" style="display: block;"><g transform="matrix(1,0,0,1,294.5899963378906,294.5899963378906)" opacity="1" style="display: block;"><g opacity="1" transform="matrix(1.8816195726394653,-0.6778699159622192,0.6778699159622192,1.8816195726394653,0,0)"></g></g><g transform="matrix(0.9837943911552429,0.17930017411708832,-0.17930017411708832,0.9837943911552429,380.05999755859375,301.5159912109375)" opacity="1" style="display: block;"><g opacity="1" transform="matrix(1.7267030477523804,1.009205937385559,-1.009205937385559,1.7267030477523804,0,0)"><path fill="rgb(235,235,235)" fill-opacity="1" d=" M0,-108.38700103759766 C0,-108.38700103759766 -9.277999877929688,-103.88899993896484 -9.336999893188477,-98.34400177001953 C-10.420999526977539,-103.58699798583984 -20.077999114990234,-103.08200073242188 -20.077999114990234,-103.08200073242188 C-20.077999114990234,-103.08200073242188 -28.069000244140625,-94.02300262451172 -27.097999572753906,-88.71800231933594 C-29.100000381469727,-93.14700317382812 -38.191001892089844,-87.68699645996094 -38.191001892089844,-87.68699645996094 C-38.191001892089844,-87.68699645996094 -44.112998962402344,-74.94999694824219 -42.207000732421875,-70.40599822998047 C-44.930999755859375,-73.58599853515625 -52.564998626708984,-63.70800018310547 -52.564998626708984,-63.70800018310547 C-52.564998626708984,-63.70800018310547 -55.8380012512207,-48.54199981689453 -53.18299865722656,-45.20399856567383 C-56.36399841308594,-46.823001861572266 -61.79399871826172,-33.49300003051758 -61.79399871826172,-33.49300003051758 C-61.79399871826172,-33.49300003051758 -62.097999572753906,-17.384000778198242 -58.95399856567383,-15.576000213623047 C-62.27799987792969,-15.477999687194824 -64.9739990234375,0 -64.9739990234375,0 C-64.9739990234375,0 -62.27799987792969,15.477999687194824 -58.95399856567383,15.57699966430664 C-62.097999572753906,17.385000228881836 -61.79399871826172,33.49399948120117 -61.79399871826172,33.49399948120117 C-61.79399871826172,33.49399948120117 -56.36399841308594,46.82400131225586 -53.18299865722656,45.20399856567383 C-55.8380012512207,48.54399871826172 -52.564998626708984,63.70899963378906 -52.564998626708984,63.70899963378906 C-52.564998626708984,63.70899963378906 -44.930999755859375,73.58799743652344 -42.207000732421875,70.40799713134766 C-44.112998962402344,74.9520034790039 -38.191001892089844,87.68800354003906 -38.191001892089844,87.68800354003906 C-38.191001892089844,87.68800354003906 -29.100000381469727,93.14600372314453 -27.097999572753906,88.71900177001953 C-28.069000244140625,94.02300262451172 -20.077999114990234,103.08200073242188 -20.077999114990234,103.08200073242188 C-20.077999114990234,103.08200073242188 -10.420999526977539,103.58799743652344 -9.336999893188477,98.34500122070312 C-9.277999877929688,103.88999938964844 -5.113999843597412,108.38700103759766 0,108.38700103759766 C5.114999771118164,108.38700103759766 9.277999877929688,103.88999938964844 9.338000297546387,98.34500122070312 C10.420999526977539,103.58799743652344 20.077999114990234,103.08200073242188 20.077999114990234,103.08200073242188 C20.077999114990234,103.08200073242188 28.06999969482422,94.02300262451172 27.099000930786133,88.71900177001953 C29.100000381469727,93.14600372314453 38.191001892089844,87.68800354003906 38.191001892089844,87.68800354003906 C38.191001892089844,87.68800354003906 44.112998962402344,74.9520034790039 42.207000732421875,70.40799713134766 C44.930999755859375,73.58799743652344 52.566001892089844,63.70899963378906 52.566001892089844,63.70899963378906 C52.566001892089844,63.70899963378906 55.8390007019043,48.54399871826172 53.183998107910156,45.20399856567383 C56.36399841308594,46.82400131225586 61.79499816894531,33.49399948120117 61.79499816894531,33.49399948120117 C61.79499816894531,33.49399948120117 62.097999572753906,17.385000228881836 58.95500183105469,15.57699966430664 C62.27899932861328,15.477999687194824 64.9739990234375,0 64.9739990234375,0 C64.9739990234375,0 62.27899932861328,-15.477999687194824 58.95500183105469,-15.576000213623047 C62.097999572753906,-17.384000778198242 61.79499816894531,-33.49300003051758 61.79499816894531,-33.49300003051758 C61.79499816894531,-33.49300003051758 56.36399841308594,-46.823001861572266 53.183998107910156,-45.20399856567383 C55.8390007019043,-48.54199981689453 52.566001892089844,-63.70800018310547 52.566001892089844,-63.70800018310547 C52.566001892089844,-63.70800018310547 44.930999755859375,-73.58599853515625 42.207000732421875,-70.40599822998047 C44.112998962402344,-74.94999694824219 38.191001892089844,-87.68699645996094 38.191001892089844,-87.68699645996094 C38.191001892089844,-87.68699645996094 29.100000381469727,-93.14700317382812 27.099000930786133,-88.71800231933594 C28.06999969482422,-94.02300262451172 20.077999114990234,-103.08200073242188 20.077999114990234,-103.08200073242188 C20.077999114990234,-103.08200073242188 10.420999526977539,-103.58699798583984 9.338000297546387,-98.34400177001953 C9.277999877929688,-103.88899993896484 0,-108.38700103759766 0,-108.38700103759766z"></path></g></g><g transform="matrix(1,0,0,1,237.97799682617188,501.2850036621094)" opacity="1" style="display: block;"><g opacity="1" transform="matrix(1.8436450958251953,-0.7752242684364319,0.7752242684364319,1.8436450958251953,0,0)"><path fill="rgb(235,235,235)" fill-opacity="1" d=" M-19.934999465942383,16.642000198364258 C-21.02199935913086,3.1440000534057617 6.067999839782715,-22.597999572753906 18.190000534057617,-23.67300033569336 C20.12700080871582,-23.84600067138672 20.711999893188477,-17.92799949645996 18.76799964904785,-17.868999481201172 C6.073999881744385,-17.48200035095215 -15.788000106811523,2.61899995803833 -12.88599967956543,17.01799964904785 C-12.399999618530273,19.430999755859375 -14.901000022888184,23.73900032043457 -16.075000762939453,23.676000595092773 C-17.25,23.61400032043457 -19.72100067138672,19.30699920654297 -19.934999465942383,16.642000198364258z"></path></g></g><g transform="matrix(1,0,0,1,372.5989990234375,307.052001953125)" opacity="1" style="display: block;"><g opacity="1" transform="matrix(2,0,0,2,0,0)"><path fill="rgb(134,137,155)" fill-opacity="1" d=" M65.52100372314453,-78.8010025024414 C-7.520999908447266,-27.812999725341797 -53.650001525878906,56.58399963378906 -65.51899719238281,78.7959976196289 C-65.58899688720703,78.9280014038086 -64.04299926757812,76.16500091552734 -60.617000579833984,71.5790023803711 C-41.263999938964844,45.672000885009766 26.94099998474121,-44.81399917602539 65.52100372314453,-78.8010025024414z"></path></g></g></g></g></svg>