<svg width="1565" height="1924" fill="none" xmlns="http://www.w3.org/2000/svg"><path d="M845.286 245.607l-42.151 112.895-431.444 168.422-143.962-46.682s311.343 18.618 282.038-151.979l.214-.94c-6.763-135.854-53.673-162.123 27.113-230.636 21.094-18.899 54.685-10.265 66.67 15.176l-.214.938c7.848 17.587 3.359 37.303-11.33 49.76-34.031 24.008 0 83.046 0 83.046 25.084 42.905 123.089 228.157 253.066 0z" fill="#86899B"/><path d="M804.089 358.723c93.155-36.072 330.191-40.381 418.861 264.209 88.68 304.589 239.05 333.881 132.51 532.808-106.53 198.93-14.22 366.1-133.27 502.93-43.69 44.36 22.87 142.46-56.37 173.81-79.02 30.39-130.15-100.73-226.417-90.05-96.257 10.66-343.98-59.54-455.115-343.57-111.134-284.03-315.137-264.3-321.232-519.476-6.095-255.18 111.099-314.419 209.589-352.238 97.551-38.034 431.444-168.423 431.444-168.423z" fill="#F2F2F2"/><path d="M484.29 1398.86c-111.135-284.03-315.137-264.29-321.233-519.475-6.095-255.178 111.1-314.416 209.589-352.236 53.28-21.448 20.163-40.836 121.897-79.892l171.909-34.934C369.959 521.6 512.752 844.437 630.7 942.382c117.947 97.948 50.181 395.568 154.852 495.428 104.887 98.93 210.868 227.73 295.568 311.19 72.54 71.82 109.34 44.65 122.21 1.16 1.07-4.7 2.14-9.39 3.21-14.08 1.99 38.96 4.71 79.08-40.93 97.33-79.03 30.41-130.15-100.72-226.417-90.05-95.829 8.81-343.768-60.47-454.903-344.5z" fill="#86899B"/><circle cx="878.249" cy="1297.46" r="73.294" transform="rotate(-45.779 878.249 1297.46)" fill="#86899B"/><circle cx="879.408" cy="1273.75" r="73.294" transform="rotate(-45.779 879.408 1273.75)" fill="#F2F2F2"/><circle cx="1007.3" cy="1258.07" r="91.651" transform="rotate(-63.888 1007.3 1258.07)" fill="#86899B"/><circle cx="999.463" cy="1229.43" r="91.651" transform="rotate(-63.888 999.463 1229.43)" fill="#F2F2F2"/><circle cx="982.491" cy="776.682" r="73.294" transform="rotate(-71.872 982.491 776.682)" fill="#86899B"/><circle cx="973.103" cy="754.879" r="73.294" transform="rotate(-71.872 973.103 754.879)" fill="#F2F2F2"/><circle cx="1157.52" cy="587.611" r="73.294" transform="rotate(-124.942 1157.52 587.611)" fill="#86899B"/><circle cx="1134.45" cy="582.011" r="73.294" transform="rotate(-124.942 1134.45 582.011)" fill="#F2F2F2"/><circle cx="1081.06" cy="684.548" r="91.651" transform="rotate(-89.982 1081.06 684.548)" fill="#86899B"/><circle cx="1061.43" cy="662.283" r="91.651" transform="rotate(-89.982 1061.43 662.283)" fill="#F2F2F2"/><circle cx="254.613" cy="1076.57" r="73.294" transform="rotate(-2.206 254.613 1076.57)" fill="#F2F2F2"/><circle cx="271.794" cy="1060.19" r="73.294" transform="rotate(-2.206 271.794 1060.19)" fill="#86899B"/><circle cx="492.724" cy="1174.98" r="73.294" transform="rotate(-55.276 492.724 1174.98)" fill="#F2F2F2"/><circle cx="489.956" cy="1151.41" r="73.294" transform="rotate(-55.276 489.956 1151.41)" fill="#86899B"/><circle cx="375.261" cy="1136.98" r="91.651" transform="rotate(-20.316 375.261 1136.98)" fill="#F2F2F2"/><circle cx="389.317" cy="1110.84" r="91.651" transform="rotate(-20.316 389.317 1110.84)" fill="#86899B"/><circle cx="1308.09" cy="953.018" r="73.294" transform="rotate(-98.849 1308.09 953.018)" fill="#86899B"/><circle cx="1294.99" cy="937.84" r="73.294" transform="rotate(-98.849 1294.99 937.84)" fill="#F2F2F2"/><circle cx="1060.64" cy="1644.76" r="73.294" transform="rotate(-98.849 1060.64 1644.76)" fill="#86899B"/><circle cx="1042.39" cy="1629.58" r="73.294" transform="rotate(-98.849 1042.39 1629.58)" fill="#F2F2F2"/><circle cx="986.819" cy="1648.85" r="81.197" transform="rotate(-63.888 986.819 1648.85)" fill="#86899B"/><circle cx="979.875" cy="1623.49" r="81.197" transform="rotate(-63.888 979.875 1623.49)" fill="#F2F2F2"/></svg>