<svg width="36" height="36" viewBox="0 0 36 36" fill="none" xmlns="http://www.w3.org/2000/svg">
<path d="M34.028 17.4083C25.5157 17.4083 18.5883 10.4796 18.5883 1.96572C18.5883 1.38451 18.1199 0.916016 17.5387 0.916016C16.9576 0.916016 16.4892 1.38451 16.4892 1.96572C16.4892 10.4796 9.56179 17.4083 1.04951 17.4083C0.468408 17.4083 0 17.8768 0 18.458C0 19.0393 0.468408 19.5077 1.04951 19.5077C9.56179 19.5077 16.4892 26.4365 16.4892 34.9504C16.4892 35.5316 16.9576 36.0001 17.5387 36.0001C18.1199 36.0001 18.5883 35.5316 18.5883 34.9504C18.5883 26.4365 25.5122 19.5077 34.028 19.5077C34.6091 19.5077 35.0775 19.0393 35.0775 18.458C35.0775 17.8768 34.6056 17.4083 34.028 17.4083Z" fill="#FFEFE3"/>
</svg>
