<svg width="126" height="126" fill="none" xmlns="http://www.w3.org/2000/svg"><ellipse cx="62.5" cy="64" rx="61.5" ry="61" fill="#141329"/><path fill-rule="evenodd" clip-rule="evenodd" d="M81.086 62.833l14.698-23.754-22.765 8.077L63.392 27l-9.628 20.156L31 39.08l14.697 23.754L31 86.587l22.764-8.078 9.628 20.156 9.627-20.156 22.765 8.078-14.698-23.754z" fill="#FFEFE3"/><path d="M62.794 125.763C28.17 125.763 0 97.553 0 62.881S28.17 0 62.794 0C97.42 0 125.59 28.209 125.59 62.881c0 34.673-28.17 62.882-62.795 62.882zm0-122.4c-32.77 0-59.436 26.695-59.436 59.518 0 32.815 26.658 59.52 59.436 59.52s59.437-26.696 59.437-59.52c0-32.815-26.667-59.519-59.437-59.519z" fill="#FFEFE3"/></svg>